<svg version="1.1" id="Layer_1" xmlns="http://www.w3.org/2000/svg" xmlns:xlink="http://www.w3.org/1999/xlink" x="0px" y="0px"
	 width="100%" viewBox="0 0 962 452" enable-background="new 0 0 962 452" style="background:transparent" xml:space="preserve">

<path fill="#0A6A9B" opacity="1.000000" stroke="none" 
	d="
M262.815399,352.924225 
	C262.815399,352.924225 262.369385,352.921387 261.903625,353.025696 
	C261.176880,353.371948 260.915863,353.613861 260.654846,353.855743 
	C260.654846,353.855743 260.287079,353.849640 259.791779,353.952332 
	C257.812653,354.678558 256.328827,355.302124 254.844971,355.925659 
	C254.844971,355.925659 254.387253,355.911835 253.883606,355.987457 
	C252.869080,356.351776 252.358200,356.640472 251.847321,356.929169 
	C251.847321,356.929169 251.388031,356.916840 250.890198,356.993774 
	C249.901352,357.357025 249.410339,357.643372 248.919342,357.929749 
	C248.919342,357.929749 248.983551,358.002960 248.575562,357.959290 
	C245.799118,358.619476 243.430664,359.323334 241.062210,360.027161 
	C241.062210,360.027161 241.027328,359.990234 240.632385,359.976318 
	C238.266418,360.545593 236.295364,361.128784 234.324310,361.711975 
	C233.433350,361.788239 232.542389,361.864471 230.960800,361.990295 
	C228.849884,362.372009 227.429581,362.704163 226.009293,363.036346 
	C225.555084,363.028320 225.100861,363.020325 223.890167,363.046478 
	C219.839508,363.394928 216.541504,364.010040 213.251831,363.968292 
	C202.506317,363.831909 191.763855,363.456055 181.020218,363.172302 
	C180.571762,363.097870 180.123322,363.023438 179.016296,362.781799 
	C173.912247,361.775238 169.466782,360.935913 165.021317,360.096619 
	C164.702682,359.960419 164.384064,359.824219 163.541931,359.454163 
	C163.582428,357.967468 163.821198,356.350006 164.757645,355.514648 
	C194.223862,329.229675 223.873474,303.149261 253.234116,276.747437 
	C268.462769,263.053467 283.613342,249.219345 297.965088,234.628143 
	C304.255219,228.233063 309.332550,220.224319 313.378448,212.155029 
	C317.862030,203.212753 314.115448,196.216537 304.333557,194.159531 
	C297.598175,192.743149 290.351959,191.883362 283.600647,192.780655 
	C266.145599,195.100571 248.607147,197.575165 231.516495,201.703796 
	C185.468597,212.827682 139.668365,224.973175 93.690948,236.395706 
	C85.136711,238.520889 76.214958,239.166779 67.462822,240.495361 
	C67.215874,239.854614 66.968933,239.213867 66.721985,238.573120 
	C69.416779,236.270630 71.839523,233.503906 74.849838,231.739838 
	C96.942024,218.793518 118.889053,205.563019 141.393967,193.367111 
	C166.984024,179.499313 193.150253,166.697617 218.946930,153.204819 
	C222.698547,151.242569 226.155518,148.364441 229.090149,145.282822 
	C232.697205,141.495132 231.806808,137.321335 227.090256,135.136292 
	C223.825546,133.623871 220.176865,132.213226 216.657440,132.102539 
	C200.695007,131.600418 184.717209,131.464401 168.745804,131.508026 
	C166.513123,131.514130 162.282486,133.574707 162.373123,134.128586 
	C163.072205,138.401566 166.747986,136.382782 169.203796,136.427124 
	C184.838287,136.709396 200.480728,136.619492 216.110641,137.029953 
	C219.495804,137.118866 222.840546,138.746918 226.203918,139.666061 
	C226.261734,140.224991 226.319565,140.783936 226.377380,141.342880 
	C224.297089,143.119843 222.425171,145.256088 220.097305,146.606216 
	C213.193253,150.610428 206.140823,154.363815 199.090698,158.110413 
	C161.926682,177.860260 124.637329,197.378586 87.653641,217.460083 
	C79.397942,221.942764 72.038361,228.166443 64.624329,234.040573 
	C62.915993,235.394104 61.493824,239.007553 62.112854,240.851578 
	C62.700546,242.602280 66.020073,243.762955 68.354149,244.494919 
	C70.159622,245.061142 72.348801,244.843704 74.280884,244.495102 
	C87.035477,242.193939 99.915466,240.366028 112.478645,237.265701 
	C157.181442,226.233932 201.716553,214.521011 246.437012,203.563293 
	C263.557587,199.368301 280.965973,196.193329 298.820129,197.900558 
	C309.547882,198.926331 312.373474,203.635742 307.796173,213.183334 
	C306.936340,214.976791 306.074646,216.867599 304.788208,218.342209 
	C297.027832,227.237823 289.786316,236.717651 281.174561,244.713181 
	C259.444641,264.888153 237.117004,284.421082 214.955719,304.129028 
	C198.778931,318.514954 182.485779,332.770081 165.971542,347.158325 
	C165.487076,347.533417 165.275574,347.833771 165.057068,348.092407 
	C165.050079,348.050720 165.132507,348.069519 164.880371,348.150574 
	C164.430481,348.514130 164.232712,348.796631 164.022797,349.042603 
	C164.010635,349.006104 164.074203,349.049500 163.702362,349.033569 
	C162.211975,350.261139 161.093445,351.504669 159.796417,352.996094 
	C158.823975,353.861969 158.030029,354.480042 156.800690,355.070740 
	C153.214905,354.724976 150.064484,354.406586 146.932266,354.072815 
	C146.950470,354.057465 146.942261,354.099152 146.897949,353.725525 
	C145.265945,352.860138 143.678238,352.368378 141.895721,351.660980 
	C141.157730,351.260864 140.614517,351.076385 139.859283,350.670776 
	C139.060913,350.336884 138.474564,350.224121 137.908951,350.092285 
	C137.929688,350.073242 137.924210,350.127075 137.885117,349.745209 
	C136.487457,348.970123 135.128876,348.576935 133.776276,348.169739 
	C133.782242,348.155731 133.767105,348.201111 133.653549,347.899536 
	C132.938980,347.471680 132.337982,347.345428 131.736969,347.219177 
	C131.736969,347.219177 131.850479,347.157684 131.768707,346.920837 
	C131.144714,346.425385 130.602509,346.166779 129.877228,345.691895 
	C129.173477,345.270172 128.652771,345.064697 128.017136,344.518585 
	C126.599976,343.785248 125.297760,343.392517 123.995544,342.999756 
	C123.995544,342.999756 124.000000,343.000000 123.861092,342.770233 
	C123.390053,342.435272 123.057915,342.330109 122.725784,342.224915 
	C122.725784,342.224915 122.855202,342.190155 122.772324,341.953064 
	C122.169075,341.432220 121.648712,341.148438 120.942459,340.609039 
	C119.859169,339.870819 118.961769,339.388214 117.865448,338.683014 
	C117.101280,338.313934 116.536018,338.167480 115.983650,338.008972 
	C115.996544,337.996948 115.986076,338.029694 115.841362,337.782990 
	C115.350533,337.399689 115.004417,337.263092 114.401779,337.082764 
	C113.809601,336.961609 113.473923,336.884216 113.138245,336.806824 
	C113.138252,336.806824 113.083603,336.928558 113.105850,336.673035 
	C113.128105,336.417511 113.005493,335.994781 112.881775,335.764526 
	C112.449310,335.391907 112.140564,335.249573 111.884445,335.094788 
	C111.937073,335.082306 111.877670,335.172699 111.868431,334.804230 
	C110.864319,333.987366 109.869453,333.538971 108.913979,333.065674 
	C108.953377,333.040802 108.940933,333.133179 108.824066,332.875061 
	C108.367348,332.487213 108.027489,332.357452 107.687637,332.227722 
	C107.687637,332.227722 107.829002,332.180359 107.755547,331.947388 
	C107.144852,331.466675 106.607613,331.218903 105.815704,330.947571 
	C105.391129,330.909729 105.221222,330.895508 105.051315,330.881317 
	C105.051315,330.881317 105.039505,330.963654 105.049454,330.738220 
	C105.059410,330.512756 104.969986,330.095490 104.858376,329.846069 
	C104.430275,329.436859 104.113777,329.277100 103.853531,329.102966 
	C103.909782,329.088593 103.897133,329.204010 103.792511,328.932068 
	C103.337761,328.537689 102.987625,328.415314 102.637489,328.292908 
	C102.637489,328.292908 102.799942,328.249451 102.735321,328.011597 
	C102.129326,327.507782 101.587944,327.241791 101.025101,326.989563 
	C101.003632,327.003296 101.023758,326.956543 101.014366,326.576782 
	C99.609413,325.184723 98.213860,324.172424 96.868378,323.121582 
	C96.918457,323.083038 96.880104,323.203461 96.803146,322.933228 
	C96.406158,322.497925 96.086143,322.332916 95.752220,322.172150 
	C95.738312,322.176392 95.717918,322.198334 95.768692,321.820679 
	C95.398697,317.769196 93.404022,315.996521 89.656631,316.341003 
	C89.656631,316.341003 89.781471,316.072601 89.719307,315.919189 
	C89.321381,315.608704 88.985619,315.451599 88.649849,315.294495 
	C88.649849,315.294495 88.773376,315.236664 88.732109,314.941040 
	C87.732910,313.809875 86.774986,312.974365 85.817047,312.138855 
	C85.817047,312.138855 85.911621,312.090210 85.831100,311.876617 
	C85.458656,311.463196 85.166740,311.263336 84.874817,311.063477 
	C84.874825,311.063477 84.957932,311.046753 84.864197,310.832886 
	C84.483414,310.422546 84.196365,310.226074 83.909309,310.029602 
	C83.559242,309.970886 83.300392,309.785095 83.042198,308.883545 
	C81.940681,307.213501 80.929718,306.132080 79.918762,305.050659 
	C79.918762,305.050659 79.994659,305.008331 79.986771,304.668457 
	C78.941559,303.248718 77.904228,302.168884 76.866898,301.089020 
	C76.866890,301.089020 76.971275,301.029327 76.943665,300.745300 
	C76.477669,300.066559 76.039284,299.671783 75.600891,299.277039 
	C75.600891,299.277039 75.804939,299.155182 75.810760,298.869354 
	C73.535446,295.394592 71.254303,292.205658 68.973160,289.016724 
	C68.973167,289.016724 69.002953,289.004517 69.005875,288.615845 
	C69.297997,284.300507 67.370049,281.716583 64.022011,279.992676 
	C64.022011,279.992676 63.791382,279.803864 63.853157,279.232147 
	C62.489395,275.912445 63.485622,271.870819 59.539509,270.469238 
	C59.539509,270.469238 59.562664,270.392578 59.690506,269.954163 
	C58.530354,266.683075 57.242355,263.850403 55.954357,261.017700 
	C55.954357,261.017700 55.737370,260.835815 55.826782,260.240814 
	C53.837029,249.610580 51.606449,239.603806 49.714195,229.533463 
	C46.882355,214.462692 46.936607,199.363617 49.692661,184.253189 
	C50.054138,182.271347 49.396793,180.103653 49.211330,178.022049 
	C49.244537,177.551682 49.277744,177.081299 49.805374,176.180389 
	C52.212830,170.025757 54.189507,164.321899 56.018444,158.571045 
	C57.444057,154.088394 58.685905,149.547302 60.009418,145.032181 
	C60.009418,145.032181 59.991856,145.008926 60.362587,144.945801 
	C61.482746,142.911240 62.232182,140.939774 62.981617,138.968323 
	C62.981617,138.968323 63.005234,138.993652 63.245499,138.830322 
	C63.649696,138.099411 63.813629,137.531815 63.977562,136.964218 
	C63.977558,136.964218 64.005577,136.991196 64.241325,136.811783 
	C64.591225,136.243164 64.705376,135.853958 64.819527,135.464752 
	C64.819527,135.464752 64.781715,135.181808 65.246880,135.055649 
	C67.743790,131.126953 69.775528,127.324417 71.807274,123.521881 
	C71.807274,123.521881 71.819260,123.197083 72.169662,122.958862 
	C72.650879,122.405563 72.781685,122.090485 72.912498,121.775406 
	C85.089088,102.598816 101.186462,87.359589 120.420723,75.520485 
	C150.150055,57.221436 182.550186,49.572220 217.323212,52.957043 
	C250.410065,56.177727 279.687012,68.706444 304.874634,90.453247 
	C331.048309,113.051422 348.639832,141.203049 355.155579,175.125977 
	C367.490967,239.347733 347.100006,292.168396 296.566498,333.279419 
	C289.026672,339.413330 279.972198,343.685486 270.973358,349.018250 
	C268.529999,350.133270 266.731689,351.048920 264.933380,351.964569 
	C264.763153,351.975677 264.592926,351.986786 263.955872,352.119537 
	C263.154053,352.360016 262.929535,352.587677 262.815399,352.924225 
z"/>
<path fill="#E8F8FB" opacity="1.000000" stroke="none" 
	d="
M157.236069,355.098083 
	C158.030029,354.480042 158.823975,353.861969 160.089081,352.896088 
	C161.731567,351.381989 162.902878,350.215759 164.074203,349.049500 
	C164.074203,349.049500 164.010635,349.006104 164.283356,348.973846 
	C164.748245,348.650909 164.940384,348.360229 165.132507,348.069519 
	C165.132507,348.069519 165.050079,348.050720 165.324341,348.008484 
	C165.813904,347.672028 166.029205,347.377777 166.244507,347.083527 
	C182.485779,332.770081 198.778931,318.514954 214.955719,304.129028 
	C237.117004,284.421082 259.444641,264.888153 281.174561,244.713181 
	C289.786316,236.717651 297.027832,227.237823 304.788208,218.342209 
	C306.074646,216.867599 306.936340,214.976791 307.796173,213.183334 
	C312.373474,203.635742 309.547882,198.926331 298.820129,197.900558 
	C280.965973,196.193329 263.557587,199.368301 246.437012,203.563293 
	C201.716553,214.521011 157.181442,226.233932 112.478645,237.265701 
	C99.915466,240.366028 87.035477,242.193939 74.280884,244.495102 
	C72.348801,244.843704 70.159622,245.061142 68.354149,244.494919 
	C66.020073,243.762955 62.700546,242.602280 62.112854,240.851578 
	C61.493824,239.007553 62.915993,235.394104 64.624329,234.040573 
	C72.038361,228.166443 79.397942,221.942764 87.653641,217.460083 
	C124.637329,197.378586 161.926682,177.860260 199.090698,158.110413 
	C206.140823,154.363815 213.193253,150.610428 220.097305,146.606216 
	C222.425171,145.256088 224.297089,143.119843 226.377380,141.342880 
	C226.319565,140.783936 226.261734,140.224991 226.203918,139.666061 
	C222.840546,138.746918 219.495804,137.118866 216.110641,137.029953 
	C200.480728,136.619492 184.838287,136.709396 169.203796,136.427124 
	C166.747986,136.382782 163.072205,138.401566 162.373123,134.128586 
	C162.282486,133.574707 166.513123,131.514130 168.745804,131.508026 
	C184.717209,131.464401 200.695007,131.600418 216.657440,132.102539 
	C220.176865,132.213226 223.825546,133.623871 227.090256,135.136292 
	C231.806808,137.321335 232.697205,141.495132 229.090149,145.282822 
	C226.155518,148.364441 222.698547,151.242569 218.946930,153.204819 
	C193.150253,166.697617 166.984024,179.499313 141.393967,193.367111 
	C118.889053,205.563019 96.942024,218.793518 74.849838,231.739838 
	C71.839523,233.503906 69.416779,236.270630 66.721985,238.573120 
	C66.968933,239.213867 67.215874,239.854614 67.462822,240.495361 
	C76.214958,239.166779 85.136711,238.520889 93.690948,236.395706 
	C139.668365,224.973175 185.468597,212.827682 231.516495,201.703796 
	C248.607147,197.575165 266.145599,195.100571 283.600647,192.780655 
	C290.351959,191.883362 297.598175,192.743149 304.333557,194.159531 
	C314.115448,196.216537 317.862030,203.212753 313.378448,212.155029 
	C309.332550,220.224319 304.255219,228.233063 297.965088,234.628143 
	C283.613342,249.219345 268.462769,263.053467 253.234116,276.747437 
	C223.873474,303.149261 194.223862,329.229675 164.757645,355.514648 
	C163.821198,356.350006 163.582428,357.967468 163.280411,359.463440 
	C160.854218,361.449524 158.166016,363.192474 155.246445,364.594482 
	C156.750046,362.639862 158.485001,361.026276 160.219955,359.412659 
	C159.572861,359.351654 158.925766,359.290649 158.278671,359.229645 
	C157.931137,357.852448 157.583603,356.475281 157.236069,355.098083 
z"/>
<path fill="#0C7A4E" opacity="1.000000" stroke="none" 
	d="
M617.821045,174.059662 
	C615.385376,174.060623 613.414368,174.060623 610.235291,174.060623 
	C612.912476,158.089767 615.501160,142.647247 618.194153,126.581772 
	C621.757263,126.581772 625.080139,126.252357 628.278137,126.740852 
	C629.592224,126.941582 631.137634,128.697266 631.719727,130.101379 
	C634.558044,136.948898 637.106384,143.916672 640.199890,151.998047 
	C643.130371,144.741470 645.903076,138.765228 647.936829,132.547256 
	C649.461670,127.885376 651.792175,125.597572 656.846924,126.512177 
	C658.604370,126.830154 660.467651,126.562843 662.882324,126.562843 
	C665.301392,142.377792 667.676697,157.906677 670.104919,173.781586 
	C665.933167,173.781586 662.170288,173.781586 657.965820,173.781586 
	C656.807129,165.348846 655.645142,156.891693 654.483154,148.434540 
	C654.133972,148.374390 653.784851,148.314224 653.435669,148.254074 
	C650.314636,155.630402 647.324585,163.067200 643.969116,170.335266 
	C643.242737,171.908554 641.306885,173.637726 639.731445,173.852524 
	C638.689209,173.994629 636.803284,171.775787 636.143921,170.247650 
	C633.011780,162.988571 630.170959,155.603745 626.060608,148.340561 
	C625.020447,155.588196 623.836487,162.819412 623.007080,170.091064 
	C622.648438,173.235138 621.429077,174.597519 617.821045,174.059662 
z"/>
<path fill="#0D7A4F" opacity="1.000000" stroke="none" 
	d="
M783.741211,126.280457 
	C785.163452,127.257393 786.958191,128.222305 786.970215,129.208878 
	C787.149902,143.999268 787.094604,158.792526 787.094604,173.772079 
	C780.169556,174.875397 774.383179,174.985916 769.859924,167.891327 
	C765.013855,160.290421 758.693542,153.629395 751.988525,146.918655 
	C751.988525,155.785385 751.988525,164.652100 751.988525,173.788971 
	C747.832397,173.788971 744.242310,173.788971 739.993469,173.788971 
	C739.993469,158.177032 739.993469,142.524323 739.993469,126.936485 
	C747.504700,125.054047 753.109009,126.211800 757.560852,133.238602 
	C762.333740,140.772278 768.434082,147.465027 774.830933,155.644730 
	C774.830933,145.231064 774.830933,136.087753 774.830933,126.278511 
	C778.072815,126.278511 780.678650,126.278511 783.741211,126.280457 
z"/>
<path fill="#0D7B4E" opacity="1.000000" stroke="none" 
	d="
M522.798462,143.048828 
	C527.106812,130.148407 538.297852,123.449699 552.297119,125.054169 
	C564.048584,126.401009 573.394592,135.602570 574.665710,147.077103 
	C576.024658,159.344604 569.055237,170.617950 557.491638,174.296844 
	C547.442200,177.494003 537.921753,176.027435 529.996216,168.948853 
	C522.396484,162.161270 520.599182,153.250412 522.798462,143.048828 
M561.959595,147.906357 
	C560.640137,141.684769 556.645264,138.086884 550.571533,136.995102 
	C544.603149,135.922272 539.683960,138.140198 536.529480,143.281616 
	C533.444275,148.310150 534.248047,153.487991 537.376831,158.259918 
	C540.414978,162.893570 546.469543,164.960724 551.841553,163.462784 
	C558.147278,161.704453 561.610657,156.683411 561.959595,147.906357 
z"/>
<path fill="#0C7A4E" opacity="1.000000" stroke="none" 
	d="
M863.684143,126.461456 
	C869.611145,126.128197 875.443604,124.831345 880.695435,126.045738 
	C894.662476,129.275360 902.072266,141.834747 898.990112,155.678406 
	C895.684021,170.527527 883.347107,176.831665 870.378357,175.722961 
	C857.718628,174.640671 848.411560,165.597488 846.999329,154.140457 
	C845.367065,140.898148 850.744263,131.841049 863.684143,126.461456 
M874.284485,136.811462 
	C866.929138,136.993713 861.829834,140.359924 860.043823,146.212143 
	C857.885742,153.283508 862.358032,161.257050 869.732666,163.485901 
	C876.838440,165.633499 884.293518,160.999023 886.410400,153.118271 
	C888.458008,145.495285 883.916199,138.965012 874.284485,136.811462 
z"/>
<path fill="#0F7B4F" opacity="1.000000" stroke="none" 
	d="
M477.357758,130.671783 
	C484.159058,139.545029 482.519501,146.610809 471.587219,155.515976 
	C476.028473,161.370392 480.488251,167.249222 485.655029,174.060043 
	C480.426727,174.060043 476.070160,174.247238 471.750549,173.930313 
	C470.650818,173.849609 469.441315,172.323502 468.672272,171.195572 
	C465.599426,166.688736 462.680267,162.077103 458.755066,157.565994 
	C458.755066,162.833374 458.755066,168.100769 458.755066,173.714844 
	C454.433868,173.714844 450.873657,173.714844 446.750641,173.714844 
	C446.553558,172.136292 446.157135,170.398651 446.148163,168.659012 
	C446.083191,156.025436 446.198578,143.390030 446.019073,130.758560 
	C445.968658,127.212173 447.247528,126.079842 450.658600,126.241455 
	C455.802460,126.485161 461.028503,125.904900 466.093872,126.596062 
	C469.862213,127.110252 473.431396,129.084152 477.357758,130.671783 
M468.137512,139.871994 
	C466.319946,135.720932 462.894257,135.571854 459.090118,135.960083 
	C459.090118,140.079956 459.090118,143.893845 459.090118,147.679077 
	C466.040222,147.896378 467.794891,146.497971 468.137512,139.871994 
z"/>
<path fill="#0C7A4E" opacity="1.000000" stroke="none" 
	d="
M686.384277,153.329193 
	C689.471069,145.381851 692.515198,137.826874 695.226562,130.154297 
	C696.242371,127.279892 697.791870,126.468918 700.719116,126.479469 
	C710.406738,126.514397 710.409973,126.398399 713.866272,135.605316 
	C718.587463,148.181732 723.303833,160.759964 728.309143,174.102310 
	C724.213440,174.102310 720.582275,174.481857 717.107605,173.910309 
	C715.769897,173.690277 714.294434,171.474182 713.750549,169.872513 
	C712.728760,166.863647 711.129333,165.583405 707.926758,165.973038 
	C705.793030,166.232620 703.562927,166.283539 701.444641,165.967651 
	C696.654358,165.253296 693.534851,166.653839 692.277466,171.684586 
	C692.028320,172.681427 690.313599,173.875443 689.181335,173.981583 
	C685.895935,174.289566 682.562988,174.090714 678.516052,174.090714 
	C681.215576,166.926910 683.712524,160.300873 686.384277,153.329193 
M706.311829,156.136429 
	C706.820068,155.243073 707.936157,154.172394 707.735840,153.485748 
	C706.614136,149.640762 705.174683,145.888474 703.350830,140.703003 
	C701.429504,146.615417 699.975525,151.089798 698.330505,156.151901 
	C701.195312,156.151901 703.315979,156.151901 706.311829,156.136429 
z"/>
<path fill="#0E7A4E" opacity="1.000000" stroke="none" 
	d="
M827.210449,173.404221 
	C817.756836,177.175369 809.314087,175.504868 800.661255,170.102081 
	C802.292053,166.985474 803.860413,163.988052 805.609619,160.645157 
	C807.740417,161.776764 809.511414,163.069305 811.492615,163.677704 
	C813.811523,164.389847 816.407959,165.070129 818.703247,164.685410 
	C820.274170,164.422104 822.407166,162.474350 822.679504,160.985245 
	C822.928284,159.625732 821.373230,157.278412 819.969238,156.421860 
	C817.610535,154.982819 814.750671,154.353226 812.084595,153.432327 
	C805.369324,151.112778 802.888428,148.206421 802.561340,142.209106 
	C802.167419,134.985428 805.294739,129.328659 811.251709,126.751305 
	C818.930542,123.428993 826.142761,125.296722 833.791321,128.923660 
	C832.249207,132.032471 830.820007,134.913849 829.357605,137.861938 
	C826.701355,136.987778 824.329468,135.539642 822.028015,135.644043 
	C819.874573,135.741714 817.795776,137.485123 815.684204,138.504211 
	C816.950928,140.147354 817.955688,142.144424 819.559814,143.331680 
	C821.090088,144.464279 823.231689,144.794174 825.127869,145.404800 
	C830.883362,147.258270 835.462158,150.272385 835.856506,156.982025 
	C836.266479,163.959305 834.267822,169.829407 827.210449,173.404221 
z"/>
<path fill="#0F7B4F" opacity="1.000000" stroke="none" 
	d="
M508.861847,134.166534 
	C508.864166,147.597900 508.864166,160.550079 508.864166,173.803802 
	C504.669067,173.803802 501.097687,173.803802 497.203552,173.803802 
	C497.203552,158.213181 497.203552,142.637100 497.203552,126.652695 
	C500.605408,126.652695 504.018585,126.652695 508.060150,126.652695 
	C508.315430,128.899246 508.587463,131.293289 508.861847,134.166534 
z"/>
<path fill="#1F6E95" opacity="1.000000" stroke="none" 
	d="
M156.800690,355.070740 
	C157.583603,356.475281 157.931137,357.852448 158.278671,359.229645 
	C158.925766,359.290649 159.572861,359.351654 160.219955,359.412659 
	C158.485001,361.026276 156.750046,362.639862 154.864029,364.562378 
	C154.244843,365.203552 153.776688,365.535858 152.955215,366.137634 
	C152.356598,366.553040 152.236649,366.768768 152.242050,367.054230 
	C151.930222,367.253174 151.618378,367.452087 150.937332,367.945374 
	C150.270004,368.419037 150.108063,368.682129 150.082321,369.029053 
	C150.082321,369.029053 150.016968,369.002014 149.718414,369.130981 
	C148.219376,370.480072 147.018890,371.700165 145.818390,372.920227 
	C144.924667,373.651367 144.030975,374.382507 142.680542,375.494385 
	C140.816376,377.250336 139.408966,378.625610 138.001541,380.000854 
	C138.001541,380.000854 138.000000,380.000000 137.749237,380.065033 
	C137.318436,380.412964 137.138367,380.695831 136.958298,380.978729 
	C136.958298,380.978729 136.999069,381.002075 136.731537,381.048859 
	C136.268860,381.382111 136.073715,381.668610 135.878571,381.955109 
	C135.548691,381.976562 135.284943,382.119812 134.750793,382.694397 
	C134.217453,383.301147 134.020645,383.598358 133.823853,383.895538 
	C133.823837,383.895538 133.938812,383.937775 133.589172,384.005127 
	C130.813202,386.372070 128.386871,388.671661 125.960541,390.971252 
	C125.960533,390.971222 125.999268,391.000702 125.732361,391.046600 
	C125.280609,391.379578 125.095757,391.666626 124.910896,391.953705 
	C124.910896,391.953705 124.984398,391.984314 124.709015,392.025818 
	C124.224998,392.353821 124.016357,392.640320 123.807716,392.926849 
	C121.648705,394.776611 119.489700,396.626373 116.880798,398.860626 
	C115.594818,400.144073 114.758728,401.042999 113.922638,401.941925 
	C113.922630,401.941925 113.996628,401.995972 113.673950,402.063293 
	C112.505669,403.032166 111.660057,403.933685 110.814453,404.835205 
	C110.814445,404.835205 110.908737,404.908051 110.617134,404.934753 
	C110.090500,405.259949 109.855469,405.558441 109.620430,405.856934 
	C108.852272,406.456085 108.084122,407.055206 106.949112,407.959961 
	C106.283775,408.431671 106.121811,408.685028 106.096375,409.025696 
	C105.799339,409.196472 105.502296,409.367218 104.857712,409.843079 
	C104.336647,410.428741 104.163132,410.709290 103.989624,410.989868 
	C103.989632,410.989868 104.000000,411.000000 103.740219,411.057892 
	C103.293846,411.396637 103.107246,411.677521 102.920654,411.958374 
	C102.920654,411.958374 102.990318,411.989990 102.718491,412.029785 
	C102.255981,412.357025 102.065308,412.644440 101.874626,412.931854 
	C101.874619,412.931854 101.956558,412.958618 101.681717,412.993591 
	C101.204887,413.326447 101.002892,413.624298 100.800903,413.922150 
	C100.343842,414.223358 99.886780,414.524536 98.913269,414.885162 
	C97.389160,414.252106 96.381485,413.559601 95.373810,412.867096 
	C95.297890,412.468719 95.221954,412.070312 95.441864,411.265808 
	C96.236954,410.273438 96.736214,409.687256 97.235474,409.101044 
	C97.535484,409.089722 97.783173,408.970062 98.353973,408.434692 
	C99.442764,407.397095 100.156128,406.666870 100.869492,405.936646 
	C100.869484,405.936646 100.955208,405.953827 101.187523,405.857483 
	C101.716423,405.582031 101.882126,405.320129 101.916962,404.975433 
	C102.211044,404.810120 102.505119,404.644775 103.152557,404.177246 
	C103.688148,403.592987 103.870369,403.310974 104.052582,403.028931 
	C104.052582,403.028931 104.001923,403.000061 104.269913,402.956635 
	C104.720825,402.624084 104.903755,402.334961 105.086685,402.045837 
	C105.086678,402.045837 105.014893,402.011780 105.290054,401.981506 
	C105.759003,401.662598 105.952797,401.374023 106.146591,401.085419 
	C106.146591,401.085419 106.059952,401.059448 106.334579,401.032043 
	C106.804581,400.711182 106.999939,400.417755 107.195305,400.124329 
	C107.195312,400.124329 107.098701,400.102478 107.371964,400.075684 
	C107.849838,399.763336 108.054459,399.477722 108.259079,399.192139 
	C108.259087,399.192139 108.094193,399.153046 108.466415,399.097534 
	C110.225433,397.696167 111.612228,396.350342 112.999039,395.004517 
	C112.999046,395.004517 113.000305,395.000000 113.258171,394.942139 
	C113.697197,394.599823 113.878365,394.315369 114.059525,394.030914 
	C114.059517,394.030914 114.002403,394.002441 114.273712,393.955627 
	C114.747314,393.624176 114.949593,393.339539 115.151871,393.054871 
	C116.049973,392.328186 116.948074,391.601501 118.301041,390.498932 
	C119.823494,389.075836 120.891083,388.028656 121.958679,386.981506 
	C121.958687,386.981506 121.999733,387.002655 122.246246,386.927765 
	C122.671219,386.575348 122.849670,386.297821 123.028114,386.020294 
	C123.028107,386.020294 122.999695,386.000000 123.260376,385.944611 
	C123.703621,385.605377 123.886185,385.321533 124.068756,385.037689 
	C124.068764,385.037689 124.006569,384.999329 124.339409,384.926941 
	C126.388863,383.214996 128.105484,381.575378 129.822083,379.935791 
	C130.118835,379.742889 130.415573,379.549988 131.084290,379.076721 
	C131.767532,378.615845 131.936417,378.346191 131.962891,377.987335 
	C131.962891,377.987335 132.000290,378.003693 132.243988,377.926849 
	C132.665970,377.572510 132.844269,377.294983 133.022583,377.017487 
	C133.022583,377.017487 133.000000,377.000000 133.262680,376.948608 
	C133.704514,376.610870 133.883682,376.324585 134.062866,376.038300 
	C134.062866,376.038300 134.003891,376.001831 134.279160,375.961121 
	C134.749649,375.630768 134.944855,375.341187 135.140060,375.051575 
	C135.459778,375.038300 135.722290,374.908966 136.281921,374.351013 
	C136.859772,373.730286 137.083359,373.422089 137.306931,373.113892 
	C137.771957,372.798859 138.236969,372.483826 139.056732,371.899963 
	C139.665054,371.475800 139.791077,371.249420 139.789551,370.951996 
	C140.101669,370.762360 140.413788,370.572754 141.086609,370.082520 
	C141.756531,369.606140 141.924805,369.340973 141.952148,368.986359 
	C141.952148,368.986359 141.996353,369.005737 142.301331,368.886169 
	C144.146683,367.251312 145.687042,365.736053 147.227417,364.220795 
	C147.227417,364.220795 146.985809,364.093323 147.398804,364.069672 
	C148.847336,363.017059 149.882858,361.988129 150.918365,360.959167 
	C150.918365,360.959167 150.985031,360.994385 151.278488,360.865234 
	C152.897369,360.059937 154.222794,359.383759 155.548218,358.707581 
	C155.118820,358.220245 154.689438,357.732880 154.260056,357.245544 
	C152.837524,356.837433 151.415009,356.429291 149.992477,356.021179 
	C149.992477,356.021179 149.993881,355.996277 149.782867,355.771179 
	C148.685928,355.060120 147.800003,354.574127 146.914062,354.088165 
	C150.064484,354.406586 153.214905,354.724976 156.800690,355.070740 
z"/>
<path fill="#2B815F" opacity="1.000000" stroke="none" 
	d="
M787.809387,294.483215 
	C786.696411,293.633575 785.340027,292.628601 785.319519,291.597137 
	C785.148193,282.949524 785.222046,274.297089 785.222046,263.828674 
	C787.837769,265.670654 789.807861,266.476074 790.911926,267.936310 
	C795.684570,274.248352 800.203796,280.751984 805.820923,286.886719 
	C805.820923,279.684387 805.820923,272.482086 805.820923,263.786102 
	C807.696167,265.318481 809.178406,265.959442 809.189392,266.624634 
	C809.341614,275.885071 809.292480,285.148834 809.292480,294.411774 
	C808.838379,294.691040 808.384277,294.970306 807.930176,295.249573 
	C806.590759,294.149811 804.965454,293.262970 803.960632,291.914001 
	C799.190613,285.509827 794.589722,278.979706 789.286804,271.601349 
	C788.888489,279.813293 788.536804,287.064423 787.809387,294.483215 
z"/>
<path fill="#247C59" opacity="1.000000" stroke="none" 
	d="
M620.592773,288.454193 
	C616.660767,283.061371 612.950195,277.955353 609.213501,272.868561 
	C609.076172,272.681610 608.682739,272.682739 607.933655,272.446198 
	C607.933655,278.830078 608.025940,285.074829 607.848511,291.311951 
	C607.816589,292.433197 606.672852,293.522797 606.042419,294.626984 
	C605.517395,293.582947 604.551636,292.545197 604.536621,291.493927 
	C604.413513,282.857666 604.467224,274.218903 604.467224,263.936340 
	C606.906738,265.589783 608.798462,266.301605 609.825073,267.664886 
	C614.708496,274.149841 619.356506,280.812134 624.903320,288.548096 
	C624.903320,279.980988 624.903320,272.669373 624.903320,265.357758 
	C625.422974,265.135284 625.942627,264.912842 626.462280,264.690369 
	C627.148987,265.658844 628.412048,266.615875 628.431519,267.597595 
	C628.593323,275.743561 628.558105,283.894409 628.478882,292.042786 
	C628.470520,292.898865 627.867920,294.413727 627.411255,294.464874 
	C626.409424,294.577057 625.012695,294.249451 624.338745,293.555878 
	C622.965820,292.143005 621.964355,290.369263 620.592773,288.454193 
z"/>
<path fill="#2C7396" opacity="1.000000" stroke="none" 
	d="
M695.993530,213.264557 
	C701.869873,201.021072 714.929565,198.776077 722.091858,209.671143 
	C720.725708,209.175003 719.215881,208.905350 718.017334,208.144989 
	C711.522583,204.024567 704.058472,205.613251 700.353943,212.022247 
	C696.865540,218.057358 699.324829,226.337952 705.583740,229.631317 
	C711.902283,232.956039 718.733948,229.538605 720.233582,222.084579 
	C717.812378,221.591461 715.390503,221.098175 712.542053,220.518021 
	C715.359802,217.854996 715.359802,217.854996 723.755676,218.437698 
	C725.531738,222.820541 723.682800,226.428467 720.865173,229.599533 
	C717.088013,233.850250 712.164795,235.004242 706.783081,233.572952 
	C698.107971,231.265762 693.664917,222.975098 695.993530,213.264557 
z"/>
<path fill="#287094" opacity="1.000000" stroke="none" 
	d="
M625.320801,233.787674 
	C612.312073,234.667664 604.130615,226.662521 606.129089,215.504715 
	C607.435120,208.212967 613.560974,202.918304 621.154846,202.517700 
	C628.106201,202.150986 635.236572,207.246643 637.025818,213.859772 
	C639.046814,221.329056 636.060791,228.557465 629.404846,232.158447 
	C628.242920,232.787109 626.956299,233.185516 625.320801,233.787674 
M621.516479,230.939545 
	C623.291138,230.550613 625.159668,230.396042 626.823364,229.729935 
	C632.403015,227.496033 635.295044,221.150711 633.799683,214.816315 
	C632.462036,209.150253 627.446899,205.631699 621.089050,205.898834 
	C614.991577,206.155014 610.570496,210.222321 609.713196,216.364426 
	C608.709167,223.557983 612.767517,228.928268 621.516479,230.939545 
z"/>
<path fill="#1E7754" opacity="1.000000" stroke="none" 
	d="
M863.562866,284.752930 
	C864.407532,285.748657 864.997925,286.439240 866.413635,288.095123 
	C867.011108,279.624817 866.229309,272.115326 866.922180,264.853302 
	C867.871582,264.999847 868.821045,265.146393 869.770508,265.292938 
	C869.770508,274.883026 869.770508,284.473145 869.770508,295.761322 
	C867.394043,294.014160 865.585876,293.212646 864.548401,291.832062 
	C859.673828,285.345215 855.010864,278.699402 849.188660,272.321106 
	C849.188660,278.361389 849.278320,284.403992 849.121643,290.440216 
	C849.085327,291.839539 848.208435,293.217072 847.718384,294.604645 
	C847.130005,293.153412 846.061523,291.711639 846.032715,290.249329 
	C845.868713,281.950836 845.953369,273.647430 845.953369,263.821899 
	C848.315735,265.442474 850.105774,266.135071 851.088013,267.437073 
	C855.291382,273.009369 859.256592,278.761322 863.562866,284.752930 
z"/>
<path fill="#308564" opacity="1.000000" stroke="none" 
	d="
M708.269287,294.477783 
	C707.897705,284.726624 707.897705,275.157013 707.897705,265.084290 
	C711.834045,265.084290 716.136536,264.322937 719.964783,265.342560 
	C722.675659,266.064575 725.774231,268.758789 726.872009,271.347717 
	C728.764832,275.811401 726.675781,279.777466 721.815002,282.373566 
	C723.924377,286.356354 725.965820,290.210693 728.007202,294.065033 
	C727.705688,294.384155 727.404236,294.703278 727.102722,295.022400 
	C725.923340,294.282837 724.450378,293.776642 723.633423,292.748962 
	C722.410461,291.210785 721.444397,289.385101 720.730774,287.541656 
	C718.965332,282.981232 715.874451,281.703156 710.920349,283.473450 
	C710.920349,285.946136 711.156372,288.605499 710.817505,291.189514 
	C710.656128,292.420105 709.400757,293.507263 708.269287,294.477783 
M710.879456,271.699707 
	C710.879456,274.129639 710.879456,276.559601 710.879456,279.253967 
	C713.824768,279.253967 716.125549,279.340851 718.417236,279.233154 
	C721.661133,279.080719 724.288940,277.401184 723.727295,274.111359 
	C723.371826,272.028992 721.105713,268.956665 719.379700,268.728790 
	C716.700867,268.375214 712.435730,265.297089 710.879456,271.699707 
z"/>
<path fill="#277C5C" opacity="1.000000" stroke="none" 
	d="
M562.934509,281.400482 
	C560.163696,281.257385 557.829834,281.123169 555.495972,280.988983 
	C555.493713,280.453369 555.491516,279.917755 555.489258,279.382141 
	C559.632874,279.382141 563.776489,279.382141 568.023254,279.382141 
	C569.177612,285.592651 565.887939,291.965759 560.043823,294.301239 
	C553.810974,296.792053 546.670227,294.240936 543.225647,288.292664 
	C539.342346,281.586823 540.685547,272.517883 546.270935,267.731781 
	C551.695129,263.083832 558.698425,263.289459 564.868713,269.450470 
	C563.704102,269.450470 562.384338,269.812714 561.400269,269.391235 
	C555.364746,266.806030 550.624084,267.386597 547.332825,271.334991 
	C543.884216,275.472137 543.245667,283.704102 547.074219,287.533875 
	C549.366150,289.826569 553.471436,291.897125 556.415771,291.500305 
	C559.368652,291.102325 562.025513,287.649506 564.481079,285.203308 
	C564.927734,284.758362 563.782043,282.714935 562.934509,281.400482 
z"/>
<path fill="#277C5C" opacity="1.000000" stroke="none" 
	d="
M745.008179,291.948853 
	C752.089600,290.745331 754.575500,288.108978 754.770386,281.694366 
	C751.686829,281.451141 748.580200,281.206085 745.473633,280.961029 
	C745.483032,280.422455 745.492493,279.883911 745.501892,279.345337 
	C749.664062,279.345337 753.826233,279.345337 758.072021,279.345337 
	C759.193909,285.912720 755.685181,292.324738 749.540344,294.493927 
	C743.435608,296.648956 736.485596,293.988800 733.181702,288.232483 
	C729.349365,281.555511 730.761414,272.406677 736.358948,267.646759 
	C741.766907,263.047882 748.908386,263.333252 756.135925,269.408020 
	C753.722412,269.408020 752.301086,269.822144 751.328308,269.336914 
	C746.918274,267.137146 742.623413,266.858459 738.705505,270.050720 
	C734.271790,273.663300 733.976746,278.703247 735.147034,283.772400 
	C736.266235,288.620239 739.495850,291.495972 745.008179,291.948853 
z"/>
<path fill="#257B5A" opacity="1.000000" stroke="none" 
	d="
M573.692383,288.127136 
	C569.270996,277.339722 573.062012,267.219482 582.059753,264.935852 
	C589.449646,263.060242 596.319885,266.518463 599.077820,273.502075 
	C602.068481,281.075073 599.207825,290.009186 592.649353,293.579102 
	C586.166992,297.107635 578.864380,295.108063 573.692383,288.127136 
M596.061157,284.229858 
	C598.009521,276.074677 594.723572,269.238770 588.237793,267.954742 
	C582.362549,266.791595 577.505249,269.794952 575.626709,275.752533 
	C573.682251,281.919281 576.303345,288.646088 581.580811,291.033325 
	C587.159973,293.557068 592.228821,291.408783 596.061157,284.229858 
z"/>
<path fill="#256E92" opacity="1.000000" stroke="none" 
	d="
M657.346802,203.271271 
	C660.608032,203.327927 663.463684,203.207764 666.221436,203.670822 
	C674.319702,205.030624 679.085632,210.698166 678.910278,218.411026 
	C678.728821,226.393509 674.064941,231.763092 665.977844,232.990845 
	C662.907166,233.457031 659.765869,233.458786 655.466675,233.753937 
	C655.962830,223.207138 656.429626,213.284058 657.346802,203.271271 
M675.129761,216.764984 
	C673.440613,208.818466 667.040405,205.014969 659.425293,207.408615 
	C659.425293,214.942825 659.425293,222.462265 659.425293,229.952881 
	C670.193237,230.401077 674.640076,226.815430 675.129761,216.764984 
z"/>
<path fill="#367A9C" opacity="1.000000" stroke="none" 
	d="
M747.364136,214.594055 
	C751.461304,215.179398 755.178406,215.481308 758.895569,215.783203 
	C758.887390,216.548523 758.879272,217.313843 758.871094,218.079178 
	C755.130371,218.353348 751.389648,218.627518 747.403809,218.919662 
	C747.192566,220.007172 746.864685,221.112228 746.778076,222.235870 
	C746.171387,230.100677 746.188599,230.044754 754.203491,230.234253 
	C755.852661,230.273254 757.487488,230.914764 759.128967,231.278549 
	C759.051270,231.802750 758.973572,232.326935 758.895874,232.851135 
	C754.043945,232.851135 749.192078,232.851135 743.246887,232.851135 
	C743.246887,223.822845 743.221008,214.584473 743.302979,205.347061 
	C743.308655,204.706253 744.128418,203.512421 744.549500,203.521378 
	C749.264832,203.621567 753.976501,203.903397 758.686401,204.182968 
	C758.758728,204.187256 758.796082,204.781097 758.973694,205.836060 
	C755.095642,205.836060 751.279907,205.836060 746.984070,205.836060 
	C746.984070,209.144669 746.984070,211.727631 747.364136,214.594055 
z"/>
<path fill="#297F5E" opacity="1.000000" stroke="none" 
	d="
M488.457245,282.446106 
	C490.010529,286.505859 491.392731,290.215515 492.774933,293.925171 
	C492.380951,294.279388 491.986969,294.633575 491.592987,294.987793 
	C490.480469,293.789429 488.694366,292.742798 488.383850,291.363861 
	C487.510712,287.486847 485.357269,286.644562 481.662476,286.690979 
	C476.744843,286.752747 471.956360,286.115570 470.930328,292.867371 
	C470.802704,293.707123 469.036102,294.297821 468.028992,295.003906 
	C467.704010,294.702118 467.379028,294.400299 467.054047,294.098480 
	C470.585114,284.888214 474.072571,275.660553 477.729004,266.500366 
	C478.025177,265.758453 479.559021,264.987122 480.373413,265.119202 
	C481.229736,265.258057 482.250214,266.330292 482.614929,267.231110 
	C484.604736,272.145844 486.414490,277.133423 488.457245,282.446106 
M483.121277,277.399536 
	C482.226440,274.997284 481.331604,272.595001 479.963959,268.923462 
	C477.919434,274.454926 476.366455,278.656494 474.687378,283.199341 
	C478.495941,283.199341 481.642761,283.199341 485.212372,283.199341 
	C484.502197,281.176361 483.964661,279.645111 483.121277,277.399536 
z"/>
<path fill="#297F5E" opacity="1.000000" stroke="none" 
	d="
M700.155212,284.720673 
	C701.380920,288.019592 702.490356,290.949524 703.599731,293.879425 
	C703.175476,294.249115 702.751160,294.618835 702.326843,294.988525 
	C701.234436,293.752777 699.400146,292.634613 699.182251,291.260254 
	C698.379089,286.192841 694.852478,286.661163 691.323730,286.787598 
	C687.705811,286.917236 683.456726,285.506470 682.437378,291.212830 
	C682.181091,292.647980 680.648743,293.855225 679.702759,295.167175 
	C679.101501,294.821930 678.500305,294.476685 677.899109,294.131439 
	C679.920959,288.821472 681.946838,283.513062 683.963379,278.201080 
	C685.318542,274.631470 686.554504,271.010834 688.074280,267.513123 
	C688.518127,266.491577 689.897339,265.029419 690.593079,265.157104 
	C691.719055,265.363739 693.101013,266.523376 693.559814,267.621155 
	C695.864868,273.137238 697.905457,278.763855 700.155212,284.720673 
M693.172485,275.344849 
	C692.476624,273.561584 691.780823,271.778320 690.690063,268.982880 
	C688.740051,274.424286 687.209778,278.694427 685.550110,283.325684 
	C689.452576,283.325684 692.523621,283.325684 696.202942,283.325684 
	C695.188293,280.621246 694.331055,278.336212 693.172485,275.344849 
z"/>
<path fill="#297F5E" opacity="1.000000" stroke="none" 
	d="
M896.587646,294.403931 
	C896.159241,294.093018 896.052673,293.962738 895.975159,293.816986 
	C894.764404,291.540161 894.018311,287.868988 892.250122,287.283722 
	C888.951843,286.192078 884.997437,286.499115 881.448059,287.059479 
	C880.169922,287.261230 879.291443,289.881592 878.193176,291.370575 
	C877.261963,292.633087 876.276855,293.855896 875.315613,295.096252 
	C874.778076,294.731781 874.240540,294.367279 873.702942,294.002808 
	C877.196411,284.793732 880.501831,275.505890 884.302734,266.425507 
	C885.385620,263.838409 887.914490,264.091064 889.025208,266.865845 
	C892.347107,275.164612 895.521057,283.524506 898.566895,291.927917 
	C898.786255,292.532959 897.505981,293.681519 896.587646,294.403931 
M891.582031,282.644623 
	C890.011047,278.355988 888.440063,274.067352 886.539001,268.877594 
	C884.592834,274.141937 883.013245,278.414764 881.211609,283.288025 
	C885.038757,283.288025 888.111633,283.288025 891.582031,282.644623 
z"/>
<path fill="#297F5E" opacity="1.000000" stroke="none" 
	d="
M664.700806,288.160645 
	C665.486511,290.367584 666.118103,292.222168 666.749695,294.076782 
	C666.340820,294.404663 665.932007,294.732544 665.523193,295.060425 
	C664.430054,293.783325 662.657959,292.646027 662.361267,291.204926 
	C661.064026,284.904663 656.223999,287.272278 652.505493,286.773102 
	C648.918640,286.291626 646.518311,287.189728 645.659729,291.179352 
	C645.341064,292.660217 643.841370,293.886902 642.880310,295.229523 
	C642.300415,294.906433 641.720520,294.583313 641.140686,294.260193 
	C642.759888,289.883575 644.359863,285.499695 646.003906,281.132355 
	C647.639221,276.788208 649.197327,272.407562 651.053833,268.158478 
	C651.604004,266.899109 653.049072,266.030640 654.084045,264.983032 
	C655.088623,266.088623 656.498291,267.028656 657.029358,268.327850 
	C659.662476,274.769318 662.063721,281.305511 664.700806,288.160645 
M656.087219,283.575928 
	C657.858215,283.590698 659.630493,283.682404 658.537781,280.944946 
	C657.113770,277.377472 655.791565,273.769379 653.955505,268.942963 
	C651.903076,274.515472 650.352417,278.725739 648.563538,283.582672 
	C651.348938,283.582672 653.297485,283.582672 656.087219,283.575928 
z"/>
<path fill="#297F5E" opacity="1.000000" stroke="none" 
	d="
M536.789246,289.011993 
	C537.419800,290.912476 537.919434,292.465790 538.419006,294.019135 
	C538.015991,294.356110 537.612976,294.693115 537.209961,295.030121 
	C536.182861,293.900513 534.531128,292.909241 534.244568,291.615601 
	C533.347900,287.568451 531.137085,286.313324 527.156189,286.725800 
	C523.097717,287.146332 518.241516,285.332214 517.135315,291.780304 
	C516.923767,293.013489 515.313477,294.006653 514.348511,295.110565 
	C513.852051,294.773407 513.355591,294.436249 512.859070,294.099091 
	C516.376770,284.884430 519.849365,275.651794 523.496887,266.488770 
	C523.792236,265.746887 525.365967,264.996490 526.201782,265.132721 
	C527.037354,265.268921 528.012695,266.385773 528.375366,267.293091 
	C531.211243,274.387115 533.914246,281.534149 536.789246,289.011993 
M523.945862,273.680542 
	C522.849854,276.729492 521.753845,279.778442 520.526855,283.191772 
	C524.376038,283.191772 527.524719,283.191772 531.112732,283.191772 
	C529.305725,278.411560 527.688782,274.134186 525.829224,269.215149 
	C525.037659,270.984344 524.588074,271.989288 523.945862,273.680542 
z"/>
<path fill="#247C59" opacity="1.000000" stroke="none" 
	d="
M466.847778,275.663574 
	C464.758850,284.388245 457.956024,283.754333 450.952271,284.053070 
	C450.952271,286.668610 451.124847,289.276947 450.864227,291.841248 
	C450.765106,292.816956 449.670807,293.691498 449.030090,294.612152 
	C448.525604,293.718506 447.594086,292.830200 447.582794,291.930389 
	C447.472839,283.146301 447.516571,274.360291 447.516571,265.662170 
	C460.286377,263.109772 466.082520,266.069977 466.847778,275.663574 
M450.927582,270.775757 
	C450.927582,274.017456 450.927582,277.259155 450.927582,280.774109 
	C453.620667,280.655396 455.898132,281.168732 457.462433,280.338501 
	C459.668457,279.167694 462.249176,277.297943 462.948578,275.163208 
	C463.456116,273.613983 461.684570,270.214752 460.020569,269.307800 
	C457.308258,267.829468 453.744720,266.395416 450.927582,270.775757 
z"/>
<path fill="#247C59" opacity="1.000000" stroke="none" 
	d="
M771.203735,281.124908 
	C769.292847,281.208008 767.840759,281.288940 766.379028,281.370422 
	C766.379028,284.720428 766.379028,287.683929 766.379028,291.349854 
	C770.181030,291.349854 773.788879,291.247986 777.383301,291.422638 
	C778.264099,291.465454 779.100891,292.412476 779.957947,292.943756 
	C779.149170,293.527466 778.357178,294.586731 777.528809,294.616028 
	C772.894653,294.779846 768.251709,294.694885 763.251526,294.694885 
	C763.251526,284.764587 763.251526,275.200256 763.251526,264.994385 
	C767.946289,264.994385 772.711304,264.914001 777.468323,265.072632 
	C778.271423,265.099396 779.040161,266.156342 779.824768,266.737305 
	C778.918030,267.204254 778.028076,268.030945 777.101685,268.074066 
	C773.648315,268.234772 770.182983,268.138245 766.445007,268.138245 
	C766.445007,271.534821 766.445007,274.438965 766.445007,277.953705 
	C769.307678,277.953705 772.098206,277.798218 774.858826,278.018555 
	C776.263611,278.130707 777.614441,278.918823 778.989624,279.401367 
	C777.547241,279.975372 776.139160,280.677124 774.649963,281.076721 
	C773.717224,281.327057 772.662476,281.122955 771.203735,281.124908 
z"/>
<path fill="#308564" opacity="1.000000" stroke="none" 
	d="
M507.768036,264.945740 
	C508.897491,264.946838 509.635468,264.761719 510.212891,264.987335 
	C511.365143,265.437622 512.429321,266.113342 513.529846,266.695923 
	C512.484253,267.197021 511.479980,267.966766 510.383209,268.135681 
	C508.778107,268.382812 507.106720,268.199280 504.876251,268.199280 
	C504.876251,274.007599 505.192261,279.466522 504.758240,284.865143 
	C504.495789,288.129761 506.961456,292.079956 502.916290,294.663971 
	C502.348602,291.317383 501.462555,287.987457 501.286530,284.620392 
	C501.010345,279.337097 501.213257,274.028717 501.213257,268.170563 
	C498.769867,268.170563 496.784790,268.351379 494.861359,268.085754 
	C494.037048,267.971954 493.341003,266.929382 492.586700,266.308777 
	C493.334076,265.853546 494.069977,265.028168 494.830688,265.004608 
	C498.985077,264.876007 503.145538,264.944550 507.768036,264.945740 
z"/>
<path fill="#1E7754" opacity="1.000000" stroke="none" 
	d="
M824.945374,287.814453 
	C824.327026,290.382416 823.709900,292.478821 823.092773,294.575226 
	C822.572021,292.524048 821.662842,290.484253 821.602356,288.419586 
	C821.409058,281.822388 821.530640,275.215942 821.530640,268.819122 
	C818.103455,268.143280 815.364868,267.603210 812.626221,267.063141 
	C812.762024,266.591827 812.897766,266.120544 813.033569,265.649231 
	C821.128906,263.872314 832.204407,264.751129 833.917053,267.905670 
	C830.898315,267.905670 828.191406,267.905670 824.946594,267.905670 
	C824.946594,274.795074 824.946594,281.068970 824.945374,287.814453 
z"/>
<path fill="#3B7D9E" opacity="1.000000" stroke="none" 
	d="
M581.859741,221.949677 
	C581.859497,224.754135 581.859497,227.067093 581.859497,229.453659 
	C585.134155,230.109619 588.088806,230.701477 591.043457,231.293320 
	C590.938782,231.909607 590.834106,232.525894 590.729431,233.142181 
	C586.884338,233.142181 583.039185,233.142181 578.428650,233.142181 
	C578.428650,224.000519 578.381836,214.740601 578.514404,205.483246 
	C578.525452,204.713516 579.748047,203.961090 580.407715,203.200592 
	C580.894592,204.121338 581.778137,205.031723 581.802490,205.964554 
	C581.937256,211.126068 581.862793,216.293060 581.859741,221.949677 
z"/>
<path fill="#1F6E95" opacity="1.000000" stroke="none" 
	d="
M49.086830,178.402557 
	C49.396793,180.103653 50.054138,182.271347 49.692661,184.253189 
	C46.936607,199.363617 46.882355,214.462692 49.714195,229.533463 
	C51.606449,239.603806 53.837029,249.610580 55.859871,260.103149 
	C53.030807,249.840210 49.607548,239.237869 47.636993,228.372086 
	C44.640953,211.851730 45.444542,195.231827 49.086830,178.402557 
z"/>
<path fill="#186F4D" opacity="1.000000" stroke="none" 
	d="
M638.028992,281.990509 
	C638.028320,285.645844 638.247986,288.826477 637.919006,291.949341 
	C637.786377,293.208191 636.452454,294.340485 635.665283,295.530365 
	C635.100586,295.292847 634.535950,295.055359 633.971252,294.817841 
	C633.971252,285.561829 633.895752,276.304230 634.092529,267.052429 
	C634.111389,266.166687 635.826904,265.317078 636.754700,264.450684 
	C637.179443,264.694702 637.604248,264.938690 638.028992,265.182709 
	C638.028992,270.619354 638.028992,276.055969 638.028992,281.990509 
z"/>
<path fill="#0E744C" opacity="1.000000" stroke="none" 
	d="
M836.983765,275.035645 
	C836.983459,272.382202 836.708496,270.172302 837.083496,268.078827 
	C837.315674,266.782715 838.535400,265.663452 839.311829,264.464813 
	C839.876770,264.698914 840.441650,264.932983 841.006592,265.167084 
	C841.006592,274.427124 841.082153,283.688751 840.885742,292.944611 
	C840.866821,293.836884 839.159180,294.693329 838.235535,295.566437 
	C837.818237,295.323639 837.400940,295.080872 836.983643,294.838074 
	C836.983643,288.401489 836.983643,281.964935 836.983765,275.035645 
z"/>
<path fill="#E8F8FB" opacity="1.000000" stroke="none" 
	d="
M181.279633,363.421021 
	C191.763855,363.456055 202.506317,363.831909 213.251831,363.968292 
	C216.541504,364.010040 219.839508,363.394928 223.558868,363.135559 
	C219.851807,364.124634 215.704300,365.900726 211.590408,365.826050 
	C201.558807,365.643860 191.291458,367.854919 181.279633,363.421021 
z"/>
<path fill="#1F6E95" opacity="1.000000" stroke="none" 
	d="
M59.754433,145.270752 
	C58.685905,149.547302 57.444057,154.088394 56.018444,158.571045 
	C54.189507,164.321899 52.212830,170.025757 50.001137,175.881165 
	C52.968132,165.844742 56.233788,155.677032 59.754433,145.270752 
z"/>
<path fill="#1F6E95" opacity="1.000000" stroke="none" 
	d="
M71.520355,123.728851 
	C69.775528,127.324417 67.743790,131.126953 65.360069,134.968689 
	C67.083206,131.317200 69.158318,127.626518 71.520355,123.728851 
z"/>
<path fill="#E8F8FB" opacity="1.000000" stroke="none" 
	d="
M165.254730,360.374268 
	C169.466782,360.935913 173.912247,361.775238 178.676071,362.817230 
	C174.492325,362.230560 169.990234,361.441223 165.254730,360.374268 
z"/>
<path fill="#1F6E95" opacity="1.000000" stroke="none" 
	d="
M69.020309,289.364319 
	C71.254303,292.205658 73.535446,295.394592 75.731293,298.957703 
	C73.453156,296.125244 71.260307,292.918579 69.020309,289.364319 
z"/>
<path fill="#E8F8FB" opacity="1.000000" stroke="none" 
	d="
M126.333160,390.980591 
	C128.386871,388.671661 130.813202,386.372070 133.552551,383.956055 
	C134.119019,388.866577 130.023575,389.538940 126.333160,390.980591 
z"/>
<path fill="#1F6E95" opacity="1.000000" stroke="none" 
	d="
M89.774033,316.634155 
	C93.404022,315.996521 95.398697,317.769196 95.497650,321.750671 
	C94.837990,321.902557 94.500160,321.746826 94.162323,321.591064 
	C92.738693,320.036469 91.315063,318.481903 89.774033,316.634155 
z"/>
<path fill="#1F6E95" opacity="1.000000" stroke="none" 
	d="
M64.049286,280.347198 
	C67.370049,281.716583 69.297997,284.300507 68.994110,288.628174 
	C67.345131,286.253357 65.710846,283.477539 64.049286,280.347198 
z"/>
<path fill="#E8F8FB" opacity="1.000000" stroke="none" 
	d="
M94.120361,321.983521 
	C94.500160,321.746826 94.837990,321.902557 95.446869,322.128326 
	C95.717918,322.198334 95.738312,322.176392 95.837952,322.433868 
	C96.251762,322.862061 96.565933,323.032745 96.880104,323.203461 
	C96.880104,323.203461 96.918457,323.083038 97.001755,323.412903 
	C98.397949,324.814026 99.710854,325.885284 101.023758,326.956543 
	C101.023758,326.956543 101.003632,327.003296 101.060303,327.200317 
	C101.116966,327.397308 101.158279,327.822693 101.158279,327.822693 
	C97.274437,327.987915 95.189209,325.815216 94.120361,321.983521 
z"/>
<path fill="#1F6E95" opacity="1.000000" stroke="none" 
	d="
M59.624680,270.812683 
	C63.485622,271.870819 62.489395,275.912445 63.866234,279.083710 
	C62.448311,276.723389 61.079082,273.939758 59.624680,270.812683 
z"/>
<path fill="#1F6E95" opacity="1.000000" stroke="none" 
	d="
M55.952213,261.393860 
	C57.242355,263.850403 58.530354,266.683075 59.671692,269.918823 
	C58.333374,267.471252 57.141720,264.620636 55.952213,261.393860 
z"/>
<path fill="#E8F8FB" opacity="1.000000" stroke="none" 
	d="
M129.444580,379.947083 
	C128.105484,381.575378 126.388863,383.214996 124.358948,384.957825 
	C123.874863,381.544952 125.708420,380.001251 129.444580,379.947083 
z"/>
<path fill="#E8F8FB" opacity="1.000000" stroke="none" 
	d="
M146.841888,364.157288 
	C145.687042,365.736053 144.146683,367.251312 142.294525,368.863037 
	C141.986603,365.970062 143.241470,364.130859 146.841888,364.157288 
z"/>
<path fill="#E8F8FB" opacity="1.000000" stroke="none" 
	d="
M150.140778,356.352417 
	C151.415009,356.429291 152.837524,356.837433 154.260056,357.245544 
	C154.689438,357.732880 155.118820,358.220245 155.548218,358.707581 
	C154.222794,359.383759 152.897369,360.059937 151.266602,360.829468 
	C150.737198,359.509796 150.513138,358.096741 150.140778,356.352417 
z"/>
<path fill="#E8F8FB" opacity="1.000000" stroke="none" 
	d="
M241.492493,360.039948 
	C243.430664,359.323334 245.799118,358.619476 248.555176,357.915222 
	C246.602768,358.627411 244.262772,359.340057 241.492493,360.039948 
z"/>
<path fill="#E8F8FB" opacity="1.000000" stroke="none" 
	d="
M138.377777,380.002686 
	C139.408966,378.625610 140.816376,377.250336 142.532089,375.745331 
	C141.478256,377.078552 140.116135,378.541534 138.377777,380.002686 
z"/>
<path fill="#E8F8FB" opacity="1.000000" stroke="none" 
	d="
M112.627686,395.000366 
	C111.612228,396.350342 110.225433,397.696167 108.533867,399.148804 
	C109.571518,397.835785 110.913933,396.416016 112.627686,395.000366 
z"/>
<path fill="#E8F8FB" opacity="1.000000" stroke="none" 
	d="
M265.317749,351.986877 
	C266.731689,351.048920 268.529999,350.133270 270.671265,349.202942 
	C269.243561,350.128540 267.472870,351.068848 265.317749,351.986877 
z"/>
<path fill="#1F6E95" opacity="1.000000" stroke="none" 
	d="
M62.718353,139.180771 
	C62.232182,140.939774 61.482746,142.911240 60.376713,144.942657 
	C60.831772,143.132812 61.643429,141.263016 62.718353,139.180771 
z"/>
<path fill="#E8F8FB" opacity="1.000000" stroke="none" 
	d="
M234.779327,361.795013 
	C236.295364,361.128784 238.266418,360.545593 240.624542,360.000458 
	C239.085876,360.651703 237.160095,361.264893 234.779327,361.795013 
z"/>
<path fill="#E8F8FB" opacity="1.000000" stroke="none" 
	d="
M226.245575,363.299286 
	C227.429581,362.704163 228.849884,362.372009 230.639709,362.097076 
	C229.500122,362.623596 227.990997,363.092926 226.245575,363.299286 
z"/>
<path fill="#E8F8FB" opacity="1.000000" stroke="none" 
	d="
M146.203796,372.942780 
	C147.018890,371.700165 148.219376,370.480072 149.727310,369.165222 
	C148.886246,370.368744 147.737717,371.667023 146.203796,372.942780 
z"/>
<path fill="#E8F8FB" opacity="1.000000" stroke="none" 
	d="
M95.088943,413.020447 
	C96.381485,413.559601 97.389160,414.252106 98.688179,415.048004 
	C96.763809,416.231781 94.955780,416.451355 95.088943,413.020447 
z"/>
<path fill="#E8F8FB" opacity="1.000000" stroke="none" 
	d="
M255.246521,355.960724 
	C256.328827,355.302124 257.812653,354.678558 259.650055,354.069489 
	C258.551758,354.721252 257.099915,355.358521 255.246521,355.960724 
z"/>
<path fill="#1F6E95" opacity="1.000000" stroke="none" 
	d="
M76.938606,301.404297 
	C77.904228,302.168884 78.941559,303.248718 79.961441,304.703735 
	C78.966095,303.959137 77.988205,302.839355 76.938606,301.404297 
z"/>
<path fill="#E8F8FB" opacity="1.000000" stroke="none" 
	d="
M150.549408,360.967957 
	C149.882858,361.988129 148.847336,363.017059 147.512161,364.146118 
	C148.201828,363.156403 149.191147,362.066589 150.549408,360.967957 
z"/>
<path fill="#E8F8FB" opacity="1.000000" stroke="none" 
	d="
M121.579956,386.985046 
	C120.891083,388.028656 119.823494,389.075836 118.454575,390.250305 
	C119.169235,389.247955 120.185242,388.118256 121.579956,386.985046 
z"/>
<path fill="#E8F8FB" opacity="1.000000" stroke="none" 
	d="
M146.932266,354.072815 
	C147.800003,354.574127 148.685928,355.060120 149.773468,355.780609 
	C148.364395,355.584747 146.753738,355.154419 145.400116,354.356689 
	C146.085526,354.025909 146.513901,354.062531 146.942261,354.099152 
	C146.942261,354.099152 146.950470,354.057465 146.932266,354.072815 
z"/>
<path fill="#1F6E95" opacity="1.000000" stroke="none" 
	d="
M79.996384,305.362610 
	C80.929718,306.132080 81.940681,307.213501 82.978691,308.645813 
	C82.028503,307.889374 81.051262,306.781982 79.996384,305.362610 
z"/>
<path fill="#1F6E95" opacity="1.000000" stroke="none" 
	d="
M146.897949,353.725525 
	C146.513901,354.062531 146.085526,354.025909 145.333618,353.987732 
	C145.010056,353.986145 145.001770,353.999634 144.836395,353.757019 
	C144.116104,353.383728 143.561188,353.253082 143.006256,353.122437 
	C143.006256,353.122437 142.702805,352.889008 142.437988,352.667633 
	C142.173157,352.446259 141.962677,352.045197 141.995560,352.003754 
	C142.028442,351.962311 142.090530,351.876617 142.090530,351.876617 
	C143.678238,352.368378 145.265945,352.860138 146.897949,353.725525 
z"/>
<path fill="#1F6E95" opacity="1.000000" stroke="none" 
	d="
M85.919159,312.440948 
	C86.774986,312.974365 87.732910,313.809875 88.709946,315.005554 
	C87.826454,314.491455 86.923859,313.617249 85.919159,312.440948 
z"/>
<path fill="#E8F8FB" opacity="1.000000" stroke="none" 
	d="
M111.201904,404.879761 
	C111.660057,403.933685 112.505669,403.032166 113.646530,402.026581 
	C113.157646,402.923126 112.373505,403.923737 111.201904,404.879761 
z"/>
<path fill="#E8F8FB" opacity="1.000000" stroke="none" 
	d="
M114.295448,401.955719 
	C114.758728,401.042999 115.594818,400.144073 116.728333,399.154053 
	C116.239922,400.031830 115.454086,401.000671 114.295448,401.955719 
z"/>
<path fill="#1F6E95" opacity="1.000000" stroke="none" 
	d="
M124.129288,343.220642 
	C125.297760,343.392517 126.599976,343.785248 127.955383,344.585205 
	C128.008575,344.992462 127.884361,345.125061 127.664810,345.139587 
	C127.445251,345.154144 127.011696,345.229584 127.011696,345.229584 
	C127.011696,345.229584 126.665276,344.962158 126.322586,344.704590 
	C125.655167,344.351166 125.330429,344.255310 125.005692,344.159454 
	C124.758141,343.920135 124.510590,343.680847 124.129288,343.220642 
z"/>
<path fill="#E8F8FB" opacity="1.000000" stroke="none" 
	d="
M96.883102,409.074707 
	C96.736214,409.687256 96.236954,410.273438 95.463806,410.962311 
	C94.966675,410.594269 94.743423,410.123566 94.520180,409.652863 
	C95.190361,409.451385 95.860542,409.249878 96.883102,409.074707 
z"/>
<path fill="#E8F8FB" opacity="1.000000" stroke="none" 
	d="
M100.503349,405.957977 
	C100.156128,406.666870 99.442764,407.397095 98.438049,408.240936 
	C98.810196,407.562836 99.473701,406.771057 100.503349,405.957977 
z"/>
<path fill="#E8F8FB" opacity="1.000000" stroke="none" 
	d="
M113.005493,335.994781 
	C113.005493,335.994781 113.128105,336.417511 113.160706,336.635071 
	C112.159531,336.492798 111.125748,336.132996 110.081505,335.341309 
	C110.071053,334.909393 110.236206,334.732086 110.512146,334.801392 
	C111.151276,334.971344 111.514473,335.072021 111.877670,335.172699 
	C111.877670,335.172699 111.937073,335.082306 111.989037,335.341797 
	C112.362503,335.732452 112.683998,335.863617 113.005493,335.994781 
z"/>
<path fill="#E8F8FB" opacity="1.000000" stroke="none" 
	d="
M113.147888,337.181335 
	C113.473923,336.884216 113.809601,336.961609 114.540512,337.334015 
	C115.285858,337.762573 115.635963,337.896149 115.986076,338.029694 
	C115.986076,338.029694 115.996544,337.996948 116.047943,338.229828 
	C116.099342,338.462708 116.202080,338.911194 116.202072,338.911194 
	C115.187225,338.459412 114.172379,338.007599 113.147888,337.181335 
z"/>
<path fill="#1F6E95" opacity="1.000000" stroke="none" 
	d="
M118.064362,338.905640 
	C118.961769,339.388214 119.859169,339.870819 120.885300,340.669830 
	C121.014030,340.986237 120.899361,341.107513 120.674042,341.108032 
	C120.448723,341.108582 120.003578,341.178772 120.003578,341.178772 
	C120.003578,341.178772 119.726135,340.919037 119.398727,340.637878 
	C118.714691,340.236176 118.358070,340.115662 118.001434,339.995117 
	C118.001434,339.995148 118.000000,340.000000 117.951019,339.803040 
	C117.902031,339.606079 117.802208,339.213562 117.869064,339.137695 
	C117.935928,339.061859 118.064354,338.905640 118.064362,338.905640 
z"/>
<path fill="#E8F8FB" opacity="1.000000" stroke="none" 
	d="
M135.904114,350.132599 
	C135.356247,349.950653 134.808380,349.768707 134.093933,349.333038 
	C133.927338,349.079315 134.029327,348.966827 134.324341,348.984009 
	C135.097458,349.311646 135.575562,349.622070 136.015381,349.981873 
	C135.977112,350.031219 135.904114,350.132599 135.904114,350.132599 
z"/>
<path fill="#E8F8FB" opacity="1.000000" stroke="none" 
	d="
M252.152802,356.954224 
	C252.358200,356.640472 252.869080,356.351776 253.682495,356.096924 
	C253.476120,356.413605 252.967194,356.696442 252.152802,356.954224 
z"/>
<path fill="#E8F8FB" opacity="1.000000" stroke="none" 
	d="
M249.216003,357.953461 
	C249.410339,357.643372 249.901352,357.357025 250.689056,357.104736 
	C250.494736,357.418274 250.003708,357.697723 249.216003,357.953461 
z"/>
<path fill="#1F6E95" opacity="1.000000" stroke="none" 
	d="
M106.070366,330.971161 
	C106.607613,331.218903 107.144852,331.466675 107.740486,332.020386 
	C107.474442,332.216034 107.149994,332.105652 106.514694,331.707886 
	C106.203842,331.420471 106.070366,330.971161 106.070366,330.971161 
z"/>
<path fill="#E8F8FB" opacity="1.000000" stroke="none" 
	d="
M143.184296,353.352234 
	C143.561188,353.253082 144.116104,353.383728 144.842621,353.751221 
	C144.463593,353.852722 143.912964,353.717377 143.184296,353.352234 
z"/>
<path fill="#1F6E95" opacity="1.000000" stroke="none" 
	d="
M101.137451,327.837280 
	C101.158279,327.822693 101.116966,327.397308 101.081772,327.186554 
	C101.587944,327.241791 102.129326,327.507782 102.707672,328.091003 
	C102.744637,328.408264 102.351288,328.407501 101.991226,328.187805 
	C101.466225,327.916809 101.301277,327.865570 101.136330,327.814362 
	C101.136330,327.814362 101.116623,327.851868 101.137451,327.837280 
z"/>
<path fill="#1F6E95" opacity="1.000000" stroke="none" 
	d="
M140.071304,350.891907 
	C140.614517,351.076385 141.157730,351.260864 141.895721,351.660980 
	C142.090530,351.876617 142.028442,351.962311 141.754364,352.030060 
	C141.480286,352.097809 141.003830,352.189728 141.003830,352.189728 
	C141.003830,352.189728 140.641602,351.950073 140.360886,351.726440 
	C140.080170,351.502838 139.909760,351.102203 139.951569,351.050720 
	C139.993393,350.999268 140.071304,350.891907 140.071304,350.891907 
z"/>
<path fill="#1F6E95" opacity="1.000000" stroke="none" 
	d="
M137.888214,350.111328 
	C138.474564,350.224121 139.060913,350.336884 139.859283,350.670776 
	C140.071304,350.891907 139.993393,350.999268 139.724197,351.070923 
	C139.455002,351.142548 139.006485,351.227905 139.006485,351.227905 
	C139.006485,351.227905 138.605499,350.976929 138.305786,350.753479 
	C138.006058,350.529999 137.888214,350.111328 137.888214,350.111328 
z"/>
<path fill="#E8F8FB" opacity="1.000000" stroke="none" 
	d="
M137.908951,350.092285 
	C137.888214,350.111328 138.006058,350.529999 138.069763,350.737976 
	C137.537796,350.820892 136.942093,350.695892 136.125244,350.351746 
	C135.904114,350.132599 135.977112,350.031219 136.328674,350.004517 
	C137.094879,350.027588 137.509552,350.077332 137.924210,350.127075 
	C137.924210,350.127075 137.929688,350.073242 137.908951,350.092285 
z"/>
<path fill="#1F6E95" opacity="1.000000" stroke="none" 
	d="
M121.071190,340.925446 
	C121.648712,341.148438 122.169075,341.432220 122.752823,342.017181 
	C122.448051,342.224945 122.079895,342.131561 121.374985,341.780029 
	C121.038223,341.521881 120.899361,341.107513 120.899361,341.107513 
	C120.899361,341.107513 121.014030,340.986237 121.071190,340.925446 
z"/>
<path fill="#1F6E95" opacity="1.000000" stroke="none" 
	d="
M131.779022,347.426941 
	C132.337982,347.345428 132.938980,347.471680 133.355942,347.880005 
	C132.778961,348.115479 132.386017,348.068848 131.993073,348.022217 
	C131.993073,348.022247 131.821091,347.634735 131.779022,347.426941 
z"/>
<path fill="#1F6E95" opacity="1.000000" stroke="none" 
	d="
M130.060287,345.908142 
	C130.602509,346.166779 131.144714,346.425385 131.767212,346.985352 
	C131.455093,347.204376 131.062698,347.121979 130.312866,346.807770 
	C129.955429,346.575928 129.839676,346.175934 129.896210,346.110138 
	C129.952759,346.044342 130.060287,345.908142 130.060287,345.908142 
z"/>
<path fill="#1F6E95" opacity="1.000000" stroke="none" 
	d="
M63.736595,137.141968 
	C63.813629,137.531815 63.649696,138.099411 63.228390,138.829620 
	C63.145885,138.434738 63.320759,137.877213 63.736595,137.141968 
z"/>
<path fill="#1F6E95" opacity="1.000000" stroke="none" 
	d="
M128.070328,344.925842 
	C128.652771,345.064697 129.173477,345.270172 129.877228,345.691895 
	C130.060287,345.908142 129.952759,346.044342 129.686829,346.123322 
	C129.420898,346.202301 129.009811,346.286530 129.009811,346.286530 
	C129.009811,346.286530 128.617996,346.010010 128.321182,345.771454 
	C128.024368,345.532898 127.884361,345.125061 127.884361,345.125061 
	C127.884361,345.125061 128.008575,344.992462 128.070328,344.925842 
z"/>
<path fill="#E8F8FB" opacity="1.000000" stroke="none" 
	d="
M132.145050,348.262146 
	C132.386017,348.068848 132.778961,348.115479 133.469498,348.181580 
	C133.767105,348.201111 133.782242,348.155731 133.823822,348.371033 
	C133.865417,348.586365 134.029327,348.966827 134.029327,348.966827 
	C134.029327,348.966827 133.927338,349.079315 133.876953,349.137878 
	C133.316711,348.964966 132.806885,348.733521 132.145050,348.262146 
z"/>
<path fill="#1F6E95" opacity="1.000000" stroke="none" 
	d="
M116.429230,338.956604 
	C116.202080,338.911194 116.099342,338.462708 116.035049,338.241882 
	C116.536018,338.167480 117.101280,338.313934 117.865448,338.683014 
	C118.064354,338.905640 117.935928,339.061859 117.670914,339.143494 
	C117.405899,339.225098 117.015541,339.294678 117.015541,339.294678 
	C117.015541,339.294678 116.656380,339.002014 116.429230,338.956604 
z"/>
<path fill="#1F6E95" opacity="1.000000" stroke="none" 
	d="
M75.670959,299.567078 
	C76.039284,299.671783 76.477669,300.066559 76.909454,300.794739 
	C76.515572,300.704498 76.128296,300.280823 75.670959,299.567078 
z"/>
<path fill="#E8F8FB" opacity="1.000000" stroke="none" 
	d="
M132.791412,377.101685 
	C132.844269,377.294983 132.665970,377.572510 132.238220,377.907288 
	C132.078964,377.631378 132.269455,377.371857 132.791412,377.101685 
z"/>
<path fill="#E8F8FB" opacity="1.000000" stroke="none" 
	d="
M134.886322,375.131683 
	C134.944855,375.341187 134.749649,375.630768 134.295471,375.991699 
	C134.235199,375.779297 134.433899,375.495544 134.886322,375.131683 
z"/>
<path fill="#E8F8FB" opacity="1.000000" stroke="none" 
	d="
M133.823471,376.122620 
	C133.883682,376.324585 133.704514,376.610870 133.271179,376.959839 
	C133.206039,376.750671 133.395065,376.478821 133.823471,376.122620 
z"/>
<path fill="#E8F8FB" opacity="1.000000" stroke="none" 
	d="
M106.303497,408.946838 
	C106.121811,408.685028 106.283775,408.431671 106.811462,408.220795 
	C106.948875,408.471680 106.772186,408.702332 106.303497,408.946838 
z"/>
<path fill="#E8F8FB" opacity="1.000000" stroke="none" 
	d="
M101.066437,413.844543 
	C101.002892,413.624298 101.204887,413.326447 101.671951,412.951630 
	C101.735336,413.172089 101.533653,413.469513 101.066437,413.844543 
z"/>
<path fill="#E8F8FB" opacity="1.000000" stroke="none" 
	d="
M104.218460,410.900635 
	C104.163132,410.709290 104.336647,410.428741 104.757545,410.086609 
	C104.920830,410.359344 104.734947,410.621460 104.218460,410.900635 
z"/>
<path fill="#E8F8FB" opacity="1.000000" stroke="none" 
	d="
M131.746017,378.072510 
	C131.936417,378.346191 131.767532,378.615845 131.213531,378.840759 
	C131.069565,378.575684 131.255692,378.333191 131.746017,378.072510 
z"/>
<path fill="#E8F8FB" opacity="1.000000" stroke="none" 
	d="
M103.161430,411.876282 
	C103.107246,411.677521 103.293846,411.396637 103.735252,411.052704 
	C103.794106,411.257812 103.598160,411.526001 103.161430,411.876282 
z"/>
<path fill="#E8F8FB" opacity="1.000000" stroke="none" 
	d="
M136.127991,381.873169 
	C136.073715,381.668610 136.268860,381.382111 136.722015,381.027405 
	C136.779144,381.236511 136.578262,381.513885 136.127991,381.873169 
z"/>
<path fill="#E8F8FB" opacity="1.000000" stroke="none" 
	d="
M102.127609,412.853394 
	C102.065308,412.644440 102.255981,412.357025 102.703102,411.994781 
	C102.766556,412.204956 102.573570,412.489929 102.127609,412.853394 
z"/>
<path fill="#E8F8FB" opacity="1.000000" stroke="none" 
	d="
M109.917648,405.802429 
	C109.855469,405.558441 110.090500,405.259949 110.604126,404.876617 
	C110.660103,405.110504 110.437477,405.429230 109.917648,405.802429 
z"/>
<path fill="#E8F8FB" opacity="1.000000" stroke="none" 
	d="
M101.706268,405.062927 
	C101.882126,405.320129 101.716423,405.582031 101.186119,405.813782 
	C101.050026,405.564484 101.231087,405.325806 101.706268,405.062927 
z"/>
<path fill="#E8F8FB" opacity="1.000000" stroke="none" 
	d="
M103.814560,403.113586 
	C103.870369,403.310974 103.688148,403.592987 103.253326,403.939636 
	C103.192657,403.735596 103.384598,403.466919 103.814560,403.113586 
z"/>
<path fill="#E8F8FB" opacity="1.000000" stroke="none" 
	d="
M104.841293,402.129639 
	C104.903755,402.334961 104.720825,402.624084 104.282974,402.982666 
	C104.217339,402.772583 104.406624,402.492981 104.841293,402.129639 
z"/>
<path fill="#E8F8FB" opacity="1.000000" stroke="none" 
	d="
M137.194046,380.891724 
	C137.138367,380.695831 137.318436,380.412964 137.749588,380.065796 
	C137.810394,380.269257 137.620102,380.536987 137.194046,380.891724 
z"/>
<path fill="#E8F8FB" opacity="1.000000" stroke="none" 
	d="
M105.890305,401.158569 
	C105.952797,401.374023 105.759003,401.662598 105.304436,402.018524 
	C105.240448,401.801147 105.437225,401.516418 105.890305,401.158569 
z"/>
<path fill="#E8F8FB" opacity="1.000000" stroke="none" 
	d="
M134.090500,383.815582 
	C134.020645,383.598358 134.217453,383.301147 134.673508,382.912109 
	C134.740875,383.125397 134.549011,383.430511 134.090500,383.815582 
z"/>
<path fill="#E8F8FB" opacity="1.000000" stroke="none" 
	d="
M106.929123,400.190613 
	C106.999939,400.417755 106.804581,400.711182 106.345261,401.075989 
	C106.275185,400.850525 106.469063,400.553680 106.929123,400.190613 
z"/>
<path fill="#E8F8FB" opacity="1.000000" stroke="none" 
	d="
M123.826782,385.120605 
	C123.886185,385.321533 123.703621,385.605377 123.270515,385.958801 
	C123.208252,385.753418 123.396530,385.478485 123.826782,385.120605 
z"/>
<path fill="#E8F8FB" opacity="1.000000" stroke="none" 
	d="
M122.797012,386.103180 
	C122.849670,386.297821 122.671219,386.575348 122.240540,386.905396 
	C122.082359,386.626953 122.274895,386.369659 122.797012,386.103180 
z"/>
<path fill="#E8F8FB" opacity="1.000000" stroke="none" 
	d="
M107.980240,399.236786 
	C108.054459,399.477722 107.849838,399.763336 107.383255,400.123901 
	C107.314667,399.893097 107.508034,399.587280 107.980240,399.236786 
z"/>
<path fill="#E8F8FB" opacity="1.000000" stroke="none" 
	d="
M125.154106,391.868347 
	C125.095757,391.666626 125.280609,391.379578 125.721436,391.024902 
	C125.784050,391.232544 125.590683,391.507751 125.154106,391.868347 
z"/>
<path fill="#E8F8FB" opacity="1.000000" stroke="none" 
	d="
M124.070679,392.851685 
	C124.016357,392.640320 124.224998,392.353821 124.694962,391.988556 
	C124.748726,392.198730 124.541183,392.487610 124.070679,392.851685 
z"/>
<path fill="#E8F8FB" opacity="1.000000" stroke="none" 
	d="
M114.895462,393.132385 
	C114.949593,393.339539 114.747314,393.624176 114.287292,393.984497 
	C114.232712,393.776733 114.435883,393.493286 114.895462,393.132385 
z"/>
<path fill="#E8F8FB" opacity="1.000000" stroke="none" 
	d="
M113.822289,394.115631 
	C113.878365,394.315369 113.697197,394.599823 113.260559,394.942017 
	C113.198395,394.733307 113.391724,394.466827 113.822289,394.115631 
z"/>
<path fill="#E8F8FB" opacity="1.000000" stroke="none" 
	d="
M103.869728,330.157379 
	C103.587814,330.022461 103.352844,329.830200 103.294029,329.377136 
	C103.423256,329.173676 103.897133,329.204010 103.897133,329.204010 
	C103.897133,329.204010 103.909782,329.088593 103.899590,329.323395 
	C103.889397,329.558197 104.006714,329.992859 103.971779,330.033417 
	C103.936844,330.073975 103.869728,330.157379 103.869728,330.157379 
z"/>
<path fill="#E8F8FB" opacity="1.000000" stroke="none" 
	d="
M109.985542,334.995209 
	C109.613899,334.933075 109.360870,334.741394 109.054451,334.265594 
	C108.967964,334.025208 109.076874,333.925964 109.321983,333.976593 
	C109.790131,334.262177 110.013168,334.497131 110.236206,334.732086 
	C110.236206,334.732086 110.071053,334.909393 109.985542,334.995209 
z"/>
<path fill="#E8F8FB" opacity="1.000000" stroke="none" 
	d="
M108.912125,334.073273 
	C108.583366,333.973083 108.353279,333.775055 108.308716,333.320343 
	C108.451416,333.113373 108.940933,333.133179 108.940933,333.133179 
	C108.940933,333.133179 108.953377,333.040802 108.959549,333.275726 
	C108.965729,333.510651 109.076874,333.925964 109.076874,333.925964 
	C109.076874,333.925964 108.967964,334.025208 108.912125,334.073273 
z"/>
<path fill="#1F6E95" opacity="1.000000" stroke="none" 
	d="
M108.824066,332.875061 
	C108.940933,333.133179 108.451416,333.113373 108.206436,333.115234 
	C107.961449,333.117096 107.780411,332.685944 107.734024,332.456848 
	C108.027489,332.357452 108.367348,332.487213 108.824066,332.875061 
z"/>
<path fill="#E8F8FB" opacity="1.000000" stroke="none" 
	d="
M105.815704,330.947571 
	C106.070366,330.971161 106.203842,331.420471 106.262802,331.647308 
	C105.979515,331.718994 105.637276,331.563843 105.173172,331.145020 
	C105.221222,330.895508 105.391129,330.909729 105.815704,330.947571 
z"/>
<path fill="#E8F8FB" opacity="1.000000" stroke="none" 
	d="
M104.969986,330.095490 
	C104.969986,330.095490 105.059410,330.512756 105.088600,330.724121 
	C104.811905,330.804474 104.506020,330.673492 104.034927,330.349945 
	C103.869728,330.157379 103.936844,330.073975 104.212448,330.060425 
	C104.488060,330.046875 104.969986,330.095490 104.969986,330.095490 
z"/>
<path fill="#E8F8FB" opacity="1.000000" stroke="none" 
	d="
M117.126465,339.477783 
	C117.015541,339.294678 117.405899,339.225098 117.604050,339.219330 
	C117.802208,339.213562 117.902031,339.606079 117.953979,339.801819 
	C117.703773,339.990265 117.447586,339.878052 117.126465,339.477783 
z"/>
<path fill="#1F6E95" opacity="1.000000" stroke="none" 
	d="
M103.792511,328.932068 
	C103.897133,329.204010 103.423256,329.173676 103.185806,329.174866 
	C102.948349,329.176086 102.747879,328.750244 102.692688,328.521576 
	C102.987625,328.415314 103.337761,328.537689 103.792511,328.932068 
z"/>
<path fill="#E8F8FB" opacity="1.000000" stroke="none" 
	d="
M101.133194,327.999451 
	C101.301277,327.865570 101.466225,327.916809 101.795517,328.168396 
	C101.683258,328.307312 101.406662,328.245941 101.133194,327.999451 
z"/>
<path fill="#1F6E95" opacity="1.000000" stroke="none" 
	d="
M88.735756,315.548584 
	C88.985619,315.451599 89.321381,315.608704 89.681442,316.062286 
	C89.411041,316.173401 89.116348,315.988037 88.735756,315.548584 
z"/>
<path fill="#1F6E95" opacity="1.000000" stroke="none" 
	d="
M84.944031,311.328583 
	C85.166740,311.263336 85.458656,311.463196 85.818024,311.928162 
	C85.594734,311.993408 85.303986,311.793549 84.944031,311.328583 
z"/>
<path fill="#1F6E95" opacity="1.000000" stroke="none" 
	d="
M83.979065,310.291504 
	C84.196365,310.226074 84.483414,310.422546 84.852859,310.873718 
	C84.639778,310.936768 84.344299,310.745087 83.979065,310.291504 
z"/>
<path fill="#1F6E95" opacity="1.000000" stroke="none" 
	d="
M64.555664,135.634766 
	C64.705376,135.853958 64.591225,136.243164 64.222145,136.810364 
	C64.075409,136.593826 64.183609,136.199310 64.555664,135.634766 
z"/>
<path fill="#1F6E95" opacity="1.000000" stroke="none" 
	d="
M72.673042,121.899673 
	C72.781685,122.090485 72.650879,122.405563 72.297531,122.858566 
	C72.194519,122.672310 72.314049,122.348129 72.673042,121.899673 
z"/>
<path fill="#E8F8FB" opacity="1.000000" stroke="none" 
	d="
M139.617981,371.025513 
	C139.791077,371.249420 139.665054,371.475800 139.211807,371.660156 
	C139.082443,371.437683 139.227203,371.240967 139.617981,371.025513 
z"/>
<path fill="#E8F8FB" opacity="1.000000" stroke="none" 
	d="
M141.736450,369.070862 
	C141.924805,369.340973 141.756531,369.606140 141.208817,369.831879 
	C141.065414,369.572754 141.248886,369.330597 141.736450,369.070862 
z"/>
<path fill="#E8F8FB" opacity="1.000000" stroke="none" 
	d="
M150.292450,368.944214 
	C150.108063,368.682129 150.270004,368.419037 150.802887,368.192841 
	C150.945572,368.448456 150.767227,368.686249 150.292450,368.944214 
z"/>
<path fill="#E8F8FB" opacity="1.000000" stroke="none" 
	d="
M152.403976,366.981812 
	C152.236649,366.768768 152.356598,366.553040 152.792450,366.379089 
	C152.912170,366.588196 152.773148,366.774261 152.403976,366.981812 
z"/>
<path fill="#E8F8FB" opacity="1.000000" stroke="none" 
	d="
M260.922791,353.844055 
	C260.915863,353.613861 261.176880,353.371948 261.714355,353.143677 
	C261.724152,353.382324 261.457458,353.607361 260.922791,353.844055 
z"/>
<path fill="#E8F8FB" opacity="1.000000" stroke="none" 
	d="
M263.053040,352.903381 
	C262.929535,352.587677 263.154053,352.360016 263.735535,352.249664 
	C263.842163,352.566528 263.611694,352.774689 263.053040,352.903381 
z"/>
<path fill="#E8F8FB" opacity="1.000000" stroke="none" 
	d="
M141.166672,352.395966 
	C141.003830,352.189728 141.480286,352.097809 141.721481,352.071503 
	C141.962677,352.045197 142.173157,352.446259 142.246689,352.660583 
	C141.989990,352.783997 141.659760,352.693085 141.166672,352.395966 
z"/>
<path fill="#E8F8FB" opacity="1.000000" stroke="none" 
	d="
M139.152863,351.423828 
	C139.006485,351.227905 139.455002,351.142548 139.682373,351.122375 
	C139.909760,351.102203 140.080170,351.502838 140.144287,351.710907 
	C139.863205,351.947266 139.560150,351.847534 139.152863,351.423828 
z"/>
<path fill="#E8F8FB" opacity="1.000000" stroke="none" 
	d="
M137.015869,373.190002 
	C137.083359,373.422089 136.859772,373.730286 136.363495,374.141541 
	C136.302124,373.918427 136.513458,373.592285 137.015869,373.190002 
z"/>
<path fill="#E8F8FB" opacity="1.000000" stroke="none" 
	d="
M129.132965,346.472534 
	C129.009811,346.286530 129.420898,346.202301 129.630280,346.189117 
	C129.839676,346.175934 129.955429,346.575928 130.012573,346.776184 
	C129.754333,346.983490 129.483139,346.877533 129.132965,346.472534 
z"/>
<path fill="#E8F8FB" opacity="1.000000" stroke="none" 
	d="
M127.664810,345.139587 
	C127.884361,345.125061 128.024368,345.532898 128.083435,345.740265 
	C127.809341,345.956848 127.521553,345.847076 127.145432,345.423950 
	C127.011696,345.229584 127.445251,345.154144 127.664810,345.139587 
z"/>
<path fill="#E8F8FB" opacity="1.000000" stroke="none" 
	d="
M125.150642,344.367981 
	C125.330429,344.255310 125.655167,344.351166 126.105362,344.678162 
	C125.919083,344.798340 125.607338,344.687408 125.150642,344.367981 
z"/>
<path fill="#1F6E95" opacity="1.000000" stroke="none" 
	d="
M122.849792,342.469238 
	C123.057915,342.330109 123.390053,342.435272 123.861893,342.771576 
	C123.658997,342.906311 123.316399,342.809967 122.849792,342.469238 
z"/>
<path fill="#E8F8FB" opacity="1.000000" stroke="none" 
	d="
M120.674042,341.108032 
	C120.899361,341.107513 121.038223,341.521881 121.092514,341.733521 
	C120.805054,341.944611 120.513298,341.823517 120.137566,341.380371 
	C120.003578,341.178772 120.448723,341.108582 120.674042,341.108032 
z"/>
<path fill="#E8F8FB" opacity="1.000000" stroke="none" 
	d="
M118.155502,340.234619 
	C118.358070,340.115662 118.714691,340.236176 119.210663,340.610657 
	C119.003189,340.734436 118.656380,340.604248 118.155502,340.234619 
z"/>
<path fill="#1F6E95" opacity="1.000000" stroke="none" 
	d="
M101.014366,326.576782 
	C99.710854,325.885284 98.397949,324.814026 96.951675,323.451416 
	C98.213860,324.172424 99.609413,325.184723 101.014366,326.576782 
z"/>
<path fill="#1F6E95" opacity="1.000000" stroke="none" 
	d="
M163.702362,349.033569 
	C162.902878,350.215759 161.731567,351.381989 160.267578,352.648254 
	C161.093445,351.504669 162.211975,350.261139 163.702362,349.033569 
z"/>
<path fill="#1F6E95" opacity="1.000000" stroke="none" 
	d="
M134.324341,348.984009 
	C134.029327,348.966827 133.865417,348.586365 133.817871,348.385071 
	C135.128876,348.576935 136.487457,348.970123 137.885117,349.745239 
	C137.509552,350.077332 137.094879,350.027588 136.366943,349.955170 
	C135.575562,349.622070 135.097458,349.311646 134.324341,348.984009 
z"/>
<path fill="#1F6E95" opacity="1.000000" stroke="none" 
	d="
M109.321983,333.976593 
	C109.076874,333.925964 108.965729,333.510651 108.920151,333.300598 
	C109.869453,333.538971 110.864319,333.987366 111.868431,334.804230 
	C111.514473,335.072021 111.151276,334.971344 110.512146,334.801392 
	C110.013168,334.497131 109.790131,334.262177 109.321983,333.976593 
z"/>
<path fill="#1F6E95" opacity="1.000000" stroke="none" 
	d="
M115.841362,337.782990 
	C115.635963,337.896149 115.285858,337.762573 114.797020,337.377777 
	C115.004417,337.263092 115.350533,337.399689 115.841362,337.782990 
z"/>
<path fill="#1F6E95" opacity="1.000000" stroke="none" 
	d="
M112.881775,335.764526 
	C112.683998,335.863617 112.362503,335.732452 111.936417,335.354279 
	C112.140564,335.249573 112.449310,335.391907 112.881775,335.764526 
z"/>
<path fill="#1F6E95" opacity="1.000000" stroke="none" 
	d="
M104.858376,329.846069 
	C104.969986,330.095490 104.488060,330.046875 104.247391,330.019867 
	C104.006714,329.992859 103.889397,329.558197 103.843338,329.337769 
	C104.113777,329.277100 104.430275,329.436859 104.858376,329.846069 
z"/>
<path fill="#1F6E95" opacity="1.000000" stroke="none" 
	d="
M96.803146,322.933228 
	C96.565933,323.032745 96.251762,322.862061 95.851860,322.429626 
	C96.086143,322.332916 96.406158,322.497925 96.803146,322.933228 
z"/>
<path fill="#1F6E95" opacity="1.000000" stroke="none" 
	d="
M164.880386,348.150574 
	C164.940384,348.360229 164.748245,348.650909 164.295517,349.010376 
	C164.232712,348.796631 164.430481,348.514130 164.880386,348.150574 
z"/>
<path fill="#1F6E95" opacity="1.000000" stroke="none" 
	d="
M165.971558,347.158325 
	C166.029205,347.377777 165.813904,347.672028 165.331329,348.050171 
	C165.275574,347.833771 165.487076,347.533417 165.971558,347.158325 
z"/>
<path fill="#F7FDFB" opacity="1.000000" stroke="none" 
	d="
M561.984253,148.314453 
	C561.610657,156.683411 558.147278,161.704453 551.841553,163.462784 
	C546.469543,164.960724 540.414978,162.893570 537.376831,158.259918 
	C534.248047,153.487991 533.444275,148.310150 536.529480,143.281616 
	C539.683960,138.140198 544.603149,135.922272 550.571533,136.995102 
	C556.645264,138.086884 560.640137,141.684769 561.984253,148.314453 
z"/>
<path fill="#F6FCFA" opacity="1.000000" stroke="none" 
	d="
M874.706787,136.854599 
	C883.916199,138.965012 888.458008,145.495285 886.410400,153.118271 
	C884.293518,160.999023 876.838440,165.633499 869.732666,163.485901 
	C862.358032,161.257050 857.885742,153.283508 860.043823,146.212143 
	C861.829834,140.359924 866.929138,136.993713 874.706787,136.854599 
z"/>
<path fill="#EFFBF7" opacity="1.000000" stroke="none" 
	d="
M468.256714,140.276154 
	C467.794891,146.497971 466.040222,147.896378 459.090118,147.679077 
	C459.090118,143.893845 459.090118,140.079956 459.090118,135.960083 
	C462.894257,135.571854 466.319946,135.720932 468.256714,140.276154 
z"/>
<path fill="#E8F8FB" opacity="1.000000" stroke="none" 
	d="
M705.874268,156.144165 
	C703.315979,156.151901 701.195312,156.151901 698.330505,156.151901 
	C699.975525,151.089798 701.429504,146.615417 703.350830,140.703003 
	C705.174683,145.888474 706.614136,149.640762 707.735840,153.485748 
	C707.936157,154.172394 706.820068,155.243073 705.874268,156.144165 
z"/>
<path fill="#F6FCFD" opacity="1.000000" stroke="none" 
	d="
M621.117188,230.933105 
	C612.767517,228.928268 608.709167,223.557983 609.713196,216.364426 
	C610.570496,210.222321 614.991577,206.155014 621.089050,205.898834 
	C627.446899,205.631699 632.462036,209.150253 633.799683,214.816315 
	C635.295044,221.150711 632.403015,227.496033 626.823364,229.729935 
	C625.159668,230.396042 623.291138,230.550613 621.117188,230.933105 
z"/>
<path fill="#EFFBF7" opacity="1.000000" stroke="none" 
	d="
M710.881836,271.236084 
	C712.435730,265.297089 716.700867,268.375214 719.379700,268.728790 
	C721.105713,268.956665 723.371826,272.028992 723.727295,274.111359 
	C724.288940,277.401184 721.661133,279.080719 718.417236,279.233154 
	C716.125549,279.340851 713.824768,279.253967 710.879456,279.253967 
	C710.879456,276.559601 710.879456,274.129639 710.881836,271.236084 
z"/>
<path fill="#F7FDFB" opacity="1.000000" stroke="none" 
	d="
M595.957520,284.606995 
	C592.228821,291.408783 587.159973,293.557068 581.580811,291.033325 
	C576.303345,288.646088 573.682251,281.919281 575.626709,275.752533 
	C577.505249,269.794952 582.362549,266.791595 588.237793,267.954742 
	C594.723572,269.238770 598.009521,276.074677 595.957520,284.606995 
z"/>
<path fill="#F6FCFD" opacity="1.000000" stroke="none" 
	d="
M675.139282,217.186737 
	C674.640076,226.815430 670.193237,230.401077 659.425293,229.952881 
	C659.425293,222.462265 659.425293,214.942825 659.425293,207.408615 
	C667.040405,205.014969 673.440613,208.818466 675.139282,217.186737 
z"/>
<path fill="#DDF4EB" opacity="1.000000" stroke="none" 
	d="
M483.274200,277.756714 
	C483.964661,279.645111 484.502197,281.176361 485.212372,283.199341 
	C481.642761,283.199341 478.495941,283.199341 474.687378,283.199341 
	C476.366455,278.656494 477.919434,274.454926 479.963959,268.923462 
	C481.331604,272.595001 482.226440,274.997284 483.274200,277.756714 
z"/>
<path fill="#DDF4EB" opacity="1.000000" stroke="none" 
	d="
M693.323120,275.698029 
	C694.331055,278.336212 695.188293,280.621246 696.202942,283.325684 
	C692.523621,283.325684 689.452576,283.325684 685.550110,283.325684 
	C687.209778,278.694427 688.740051,274.424286 690.690063,268.982880 
	C691.780823,271.778320 692.476624,273.561584 693.323120,275.698029 
z"/>
<path fill="#DDF4EB" opacity="1.000000" stroke="none" 
	d="
M891.383301,282.966309 
	C888.111633,283.288025 885.038757,283.288025 881.211609,283.288025 
	C883.013245,278.414764 884.592834,274.141937 886.539001,268.877594 
	C888.440063,274.067352 890.011047,278.355988 891.383301,282.966309 
z"/>
<path fill="#DDF4EB" opacity="1.000000" stroke="none" 
	d="
M655.666626,283.579285 
	C653.297485,283.582672 651.348938,283.582672 648.563538,283.582672 
	C650.352417,278.725739 651.903076,274.515472 653.955505,268.942963 
	C655.791565,273.769379 657.113770,277.377472 658.537781,280.944946 
	C659.630493,283.682404 657.858215,283.590698 655.666626,283.579285 
z"/>
<path fill="#DDF4EB" opacity="1.000000" stroke="none" 
	d="
M524.042114,273.337372 
	C524.588074,271.989288 525.037659,270.984344 525.829224,269.215149 
	C527.688782,274.134186 529.305725,278.411560 531.112732,283.191772 
	C527.524719,283.191772 524.376038,283.191772 520.526855,283.191772 
	C521.753845,279.778442 522.849854,276.729492 524.042114,273.337372 
z"/>
<path fill="#EFFBF7" opacity="1.000000" stroke="none" 
	d="
M450.938019,270.316956 
	C453.744720,266.395416 457.308258,267.829468 460.020569,269.307800 
	C461.684570,270.214752 463.456116,273.613983 462.948578,275.163208 
	C462.249176,277.297943 459.668457,279.167694 457.462433,280.338501 
	C455.898132,281.168732 453.620667,280.655396 450.927582,280.774109 
	C450.927582,277.259155 450.927582,274.017456 450.938019,270.316956 
z"/>
</svg>